<?xml version="1.0" encoding="UTF-8" standalone="no"?>
<svg
   xmlns:dc="http://purl.org/dc/elements/1.1/"
   xmlns:cc="http://creativecommons.org/ns#"
   xmlns:rdf="http://www.w3.org/1999/02/22-rdf-syntax-ns#"
   xmlns:svg="http://www.w3.org/2000/svg"
   xmlns="http://www.w3.org/2000/svg"
   xmlns:sodipodi="http://sodipodi.sourceforge.net/DTD/sodipodi-0.dtd"
   xmlns:inkscape="http://www.inkscape.org/namespaces/inkscape"
   version="1.1"
   id="Contours"
   x="0px"
   y="0px"
   width="1669.9762"
   height="362.9762"
   viewBox="0 -5e-06 1669.9762 79.755005"
   enable-background="new 0 0 1669.976196 1669.976196"
   xml:space="preserve"
   sodipodi:docname="chat.svg"
   style="fill:none;stroke:#000000;stroke-linecap:round;stroke-linejoin:round"
   inkscape:version="0.92.5 (2060ec1f9f, 2020-04-08)"><metadata
   id="metadata64"><rdf:RDF><cc:Work
       rdf:about=""><dc:format>image/svg+xml</dc:format><dc:type
         rdf:resource="http://purl.org/dc/dcmitype/StillImage" /><dc:title></dc:title></cc:Work></rdf:RDF></metadata><defs
   id="defs62" /><sodipodi:namedview
   pagecolor="#ffffff"
   bordercolor="#666666"
   borderopacity="1"
   objecttolerance="10"
   gridtolerance="10"
   guidetolerance="10"
   inkscape:pageopacity="0"
   inkscape:pageshadow="2"
   inkscape:window-width="1848"
   inkscape:window-height="1016"
   id="namedview60"
   showgrid="false"
   inkscape:zoom="0.50180356"
   inkscape:cx="834.9881"
   inkscape:cy="516.13823"
   inkscape:window-x="72"
   inkscape:window-y="27"
   inkscape:window-maximized="1"
   inkscape:current-layer="Contours" />
<path
   class="selected"
   d="M 9.7238299,212.59218 C 1.9451173,201.59837 21.782643,192.71219 35.429238,190.9575 101.8364,182.41886 143.60773,117.79111 168.74734,57.519329 193.88695,-2.7527017 215.98325,-70.510414 272.40825,-105.63331 c 44.14291,-27.47764 99.77252,-28.47958 152.16236,-28.60135 340.30499,-0.79103 680.60999,-1.58215 1020.91509,-2.37318 50.7502,-0.11814 102.2622,12.90053 143.3589,41.68789 41.0967,28.787174 70.762,74.157983 74.714,123.230839 6.7399,83.691541 -65.0524,161.362201 -149.3859,180.455831 -33.1079,7.49582 -67.4389,7.56874 -101.4179,7.60401 -462.25542,0.4801 -924.51078,0.96019 -1386.766116,1.44029 -5.959555,0.006 -12.896196,-0.45786 -16.2648501,-5.21884 M 431.25669,-110.0488 c -45.92568,0.15824 -94.23296,0.90776 -134.08724,23.142422 C 192.9495,-28.762721 201.16447,140.04765 94.288465,193.4453 c 435.477445,0.2555 870.954895,0.51099 1306.432335,0.76649 45.2893,0.0266 91.7788,-0.15179 134.0966,-15.90627 50.9176,-18.95607 93.2078,-62.87403 101.5955,-115.126765 11.157,-69.5060018 -41.3107,-139.180218 -109.5908,-162.619769 -41.0172,-14.080696 -85.5713,-14.088826 -129.1149,-13.938736 -322.1501,1.11031 -644.30035,2.22063 -966.45051,3.33095 z"
   id="path57"
   inkscape:connector-curvature="0"
   style="opacity:1;fill:#000000;stroke:none;stroke-width:0.97670275" />
</svg>