<svg width="650" height="450" viewBox="0 0 650 450" fill="none" xmlns="http://www.w3.org/2000/svg">
<rect width="650" height="450" fill="#131319"/>
<g clip-path="url(#clip0)">
<path d="M378.995 275.294C377.586 276.393 377.022 277.89 376.684 279.531C376.243 281.674 376.858 283.617 377.638 285.57C378.218 287.021 378.915 288.456 378.905 290.083C378.894 291.908 376.955 293.793 375.448 294.017C373.874 294.252 372.608 293.674 371.463 292.744C369.738 291.343 368.442 289.574 367.441 287.607C366.989 286.719 366.736 285.731 366.365 284.8C366.256 284.528 366.049 284.297 365.888 284.047C365.845 284.323 365.76 284.6 365.766 284.875C365.787 285.76 365.905 286.646 365.868 287.526C365.788 289.463 365.642 291.398 365.51 293.332C365.444 294.302 365.336 295.27 365.27 296.24C365.138 298.175 365.037 300.111 364.893 302.045C364.799 303.306 364.675 304.567 364.524 305.823C364.391 306.926 364.205 308.022 364.038 309.121C363.877 310.18 363.724 311.24 363.542 312.295C363.448 312.843 363.348 313.398 363.16 313.917C363.062 314.19 363.072 314.265 363.319 314.399C363.657 314.582 363.964 314.827 364.275 315.058C364.914 315.531 365.016 315.954 364.778 316.898C364.117 319.512 363.468 322.129 362.809 324.743C362.474 326.077 362.124 327.408 361.788 328.742C361.549 329.688 361.228 330.627 361.122 331.589C361.044 332.295 361.295 333.031 361.328 333.757C361.397 335.259 360.98 336.672 360.453 338.059C360.341 338.356 360.186 338.625 360.622 338.844C361.264 339.167 361.58 339.952 361.464 340.672C361.396 341.101 361.347 341.538 361.342 341.971C361.326 343.27 361.013 343.598 359.708 343.625C359.667 343.626 359.626 343.625 359.585 343.625C354.258 343.666 348.932 343.701 343.605 343.752C342.223 343.766 340.841 343.84 339.458 343.867C338.66 343.883 338.162 343.281 338.237 342.48C338.301 341.803 338.339 341.123 338.36 340.443C338.375 339.952 338.52 339.578 338.941 339.264C339.117 339.132 339.234 338.72 339.168 338.497C338.815 337.308 338.657 336.1 338.746 334.872C338.798 334.16 338.847 333.397 339.136 332.766C339.552 331.855 339.451 331.019 339.233 330.117C338.876 328.642 338.541 327.161 338.249 325.672C337.891 323.848 337.579 322.015 337.262 320.184C337.043 318.92 336.814 317.655 336.676 316.381C336.65 316.141 336.974 315.757 337.234 315.608C338.553 314.849 338.59 314.859 338.037 313.395C337.395 311.696 336.693 310.021 336.033 308.329C335.408 306.725 334.798 305.114 334.195 303.501C334.142 303.357 334.201 303.175 334.183 303.013C334.172 302.912 334.114 302.817 334.077 302.719C333.95 302.792 333.754 302.835 333.707 302.943C332.542 305.633 331.407 308.337 330.234 311.024C329.749 312.134 329.203 313.219 328.655 314.3C328.264 315.073 328.353 315.406 329.125 315.74C329.872 316.064 329.892 316.162 329.774 316.96C329.581 318.259 329.482 319.574 329.264 320.868C328.966 322.639 328.619 324.402 328.246 326.158C327.883 327.864 327.384 329.544 327.102 331.262C326.992 331.929 327.238 332.691 327.452 333.369C328.016 335.164 327.836 336.931 327.375 338.698C327.28 339.06 327.269 339.269 327.643 339.526C327.916 339.713 328.096 340.161 328.149 340.518C328.257 341.248 328.272 341.995 328.287 342.736C328.306 343.692 327.998 343.994 327.076 343.994C324.353 343.994 321.63 344.01 318.907 343.99C316.016 343.968 313.126 343.919 310.236 343.868C308.956 343.845 307.676 343.785 306.396 343.75C305.79 343.734 305.263 343.413 305.22 342.829C305.148 341.845 305.158 340.849 305.224 339.864C305.242 339.592 305.528 339.214 305.784 339.107C306.272 338.904 306.276 338.58 306.122 338.237C305.457 336.753 305.144 335.202 305.207 333.584C305.227 333.061 305.418 332.544 305.419 332.024C305.419 331.527 305.305 331.023 305.184 330.536C304.419 327.476 303.636 324.421 302.864 321.363C302.476 319.824 302.107 318.28 301.711 316.743C301.524 316.017 301.638 315.664 302.276 315.249C303.243 314.619 303.185 314.636 302.875 313.553C302.182 311.132 301.499 308.706 300.919 306.258C300.597 304.896 300.5 303.482 300.281 302.095C299.964 300.079 299.608 298.07 299.308 296.051C299.106 294.692 298.968 293.323 298.812 291.956C298.724 291.191 298.663 290.422 298.578 289.656C298.565 289.543 298.482 289.438 298.432 289.329C298.353 289.45 298.238 289.561 298.202 289.694C298.044 290.265 297.999 290.887 297.746 291.409C297.199 292.538 296.528 293.606 295.947 294.719C295.389 295.787 294.648 296.673 293.61 297.291C292.115 298.18 290.085 298.179 288.714 296.879C287.61 295.832 287.021 294.595 286.881 293.084C286.751 291.675 286.897 290.301 287.114 288.916C287.465 286.678 287.652 284.419 286.868 282.238C286.589 281.462 286.064 280.75 285.548 280.089C285.063 279.468 284.403 278.984 283.89 278.38C283.455 277.868 282.88 277.769 282.37 277.937C281.746 278.143 281.263 277.897 280.759 277.714C278.796 277.003 277.019 275.924 275.269 274.809C273.191 273.486 271.109 272.167 269.085 270.765C267.779 269.86 266.527 268.862 265.337 267.807C263.969 266.594 262.636 265.328 261.395 263.986C259.828 262.291 258.302 260.549 256.881 258.732C255.326 256.743 253.799 254.715 252.466 252.576C251.255 250.632 250.3 248.527 249.272 246.473C248.773 245.476 248.345 244.441 247.924 243.408C247.673 242.793 247.871 242.267 248.401 241.912C250.612 240.431 252.86 239 255.026 237.456C257.128 235.957 259.161 234.362 261.197 232.774C263.092 231.294 264.963 229.784 266.819 228.257C268.05 227.244 269.271 226.215 270.434 225.127C272.57 223.129 274.711 221.132 276.748 219.036C277.942 217.809 278.952 216.402 280.022 215.058C281.195 213.584 282.395 212.127 283.486 210.594C284.874 208.646 286.239 206.674 287.47 204.627C288.314 203.221 288.924 201.672 289.61 200.174C289.686 200.009 289.654 199.698 289.542 199.561C288.637 198.453 287.656 197.405 286.786 196.271C285.713 194.87 284.664 193.442 283.719 191.952C282.916 190.687 282.191 189.357 281.584 187.988C280.779 186.174 280.132 184.291 279.388 182.449C279.29 182.207 279.056 181.915 278.828 181.851C278.133 181.657 277.756 181.126 277.484 180.576C276.648 178.878 275.791 177.18 275.128 175.412C274.409 173.494 273.862 171.508 273.315 169.531C273.077 168.674 273.046 167.761 272.886 166.88C272.407 164.243 272.48 161.579 272.544 158.925C272.58 157.474 272.806 156.023 273.023 154.584C273.307 152.707 273.586 150.822 274.02 148.976C274.415 147.297 274.964 145.648 275.535 144.018C276.639 140.865 278.1 137.866 279.652 134.915C281.063 132.233 282.548 129.588 284.397 127.179C285.366 125.917 286.462 124.751 287.514 123.554C288.033 122.962 288.541 122.351 289.125 121.83C290.986 120.171 292.871 118.538 294.765 116.916C297.15 114.874 299.856 113.304 302.68 112.003C304.821 111.016 307.117 110.35 309.37 109.626C311.003 109.102 312.669 108.664 314.342 108.288C315.649 107.994 316.984 107.772 318.319 107.664C320.638 107.476 322.966 107.401 325.29 107.277C326.791 107.197 328.292 107.074 329.795 107.041C331.684 107 333.578 106.97 335.465 107.052C336.876 107.113 338.284 107.323 339.683 107.533C340.943 107.722 342.186 108.024 343.443 108.231C344.259 108.364 345.091 108.399 345.911 108.509C347.4 108.711 348.886 108.937 350.373 109.151C351.166 109.265 351.956 109.416 352.753 109.48C354.604 109.628 356.458 109.733 358.311 109.857C358.848 109.894 359.383 109.967 359.919 109.974C361.236 109.991 362.556 110.028 363.871 109.968C365.995 109.872 368.014 109.387 369.831 108.198C370.462 107.785 371.17 107.487 371.854 107.157C372.603 106.797 373.404 107.211 373.697 108.033C374.173 109.372 374.643 110.714 375.092 112.062C375.799 114.186 376.537 116.301 377.169 118.448C377.806 120.608 378.408 122.784 378.878 124.984C379.248 126.719 379.411 128.5 379.635 130.264C379.861 132.039 380.058 133.819 380.25 135.598C380.353 136.545 380.444 137.494 380.493 138.445C380.56 139.737 380.59 141.031 380.621 142.324C380.669 144.396 380.766 146.468 380.727 148.538C380.693 150.332 380.516 152.123 380.371 153.913C380.281 155.012 380.145 156.107 380.005 157.2C379.814 158.694 379.625 160.188 379.387 161.674C379.132 163.26 378.871 164.848 378.521 166.414C378.1 168.298 377.598 170.163 377.103 172.029C376.377 174.771 375.332 177.392 373.98 179.885C373.608 180.57 373.258 181.26 372.583 181.78C372.203 182.073 372.09 182.739 371.906 183.254C370.943 185.938 369.887 188.576 368.343 190.992C367.579 192.188 366.824 193.391 366.095 194.608C365.981 194.798 365.967 195.098 366.015 195.324C366.367 196.98 367.365 198.339 368.18 199.765C369.163 201.483 370.269 203.139 371.429 204.744C372.615 206.385 373.914 207.945 375.199 209.511C375.911 210.379 376.697 211.187 377.45 212.021C378.999 213.735 380.562 215.435 382.093 217.164C383.373 218.61 384.633 220.075 385.872 221.556C387.61 223.634 389.31 225.745 391.048 227.823C392.111 229.092 393.214 230.328 394.302 231.575C396.008 233.53 397.685 235.514 399.439 237.426C400.465 238.544 401.623 239.54 402.709 240.604C403.095 240.982 403.285 241.383 403.13 242.002C402.902 242.908 402.943 243.88 402.718 244.787C402.101 247.267 401.433 249.735 400.735 252.194C399.801 255.489 398.402 258.606 396.812 261.621C395.245 264.591 393.593 267.533 391.474 270.155C390.089 271.869 388.565 273.475 387.048 275.077C386.471 275.686 385.787 276.23 385.066 276.657C384.036 277.267 382.988 276.859 382.02 276.396C381.35 276.075 380.73 275.643 380.108 275.231C379.72 274.975 379.375 274.869 378.995 275.294ZM330.749 257.452C330.708 257.325 330.638 257.201 330.63 257.073C330.541 255.531 330.456 253.989 330.382 252.446C330.331 251.378 330.296 250.31 330.258 249.242C330.174 246.881 330.02 244.519 330.029 242.158C330.042 238.794 330.172 235.429 330.261 232.065C330.271 231.693 330.264 231.292 330.394 230.955C330.807 229.883 330.572 228.909 330.02 227.987C329.135 226.507 328.284 224.999 327.291 223.594C326.147 221.977 324.929 220.402 323.62 218.916C322.68 217.849 321.61 216.861 320.466 216.016C319.401 215.23 318.221 214.518 316.984 214.07C315.57 213.557 314.034 213.382 312.556 213.042C309.508 212.342 306.614 211.203 303.806 209.853C302.419 209.186 301.054 208.455 299.753 207.635C298.021 206.542 296.332 205.376 294.682 204.162C293.566 203.34 292.557 202.373 291.483 201.491C291.22 201.275 290.948 201.255 290.817 201.692C290.736 201.961 290.578 202.206 290.457 202.463C289.308 204.901 288.088 207.303 286.467 209.468C284.729 211.788 282.973 214.095 281.165 216.359C279.814 218.051 278.4 219.697 276.95 221.305C276.111 222.237 275.155 223.066 274.232 223.92C272.86 225.19 271.491 226.465 270.082 227.694C268.573 229.011 267.049 230.313 265.479 231.556C263.439 233.171 261.342 234.714 259.284 236.306C258.957 236.559 258.567 236.826 258.879 237.389C259.933 239.29 259.997 241.333 259.757 243.439C259.522 245.504 258.668 247.324 257.646 249.076C256.976 250.225 256.13 251.25 254.947 251.929C254.351 252.27 254.293 252.455 254.712 253.029C255.748 254.444 256.748 255.889 257.848 257.253C259.381 259.154 260.95 261.03 262.585 262.842C263.645 264.015 264.799 265.119 266.006 266.141C267.654 267.534 269.348 268.884 271.107 270.133C272.876 271.388 274.749 272.496 276.577 273.669C276.998 273.938 277.397 274.138 277.644 273.463C277.76 273.144 277.95 272.848 278.041 272.523C278.188 271.997 278.562 271.756 279.095 271.883C279.991 272.097 280.89 272.298 281.79 272.491C281.839 272.501 281.981 272.365 281.972 272.319C281.842 271.659 281.862 271.036 282.059 270.366C282.492 268.902 283.271 267.638 284.18 266.457C284.901 265.521 285.698 264.623 286.579 263.84C287.004 263.463 287.055 263.305 286.71 262.911C285.412 261.427 284.181 259.879 282.828 258.447C281.062 256.578 279.199 254.804 276.994 253.431C276.526 253.139 276.149 252.657 276.346 252.061C276.559 251.418 276.828 250.768 277.207 250.212C278.085 248.925 279.007 247.664 279.981 246.448C281.111 245.037 282.23 243.599 283.506 242.326C286.264 239.576 289.099 236.902 291.945 234.242C292.921 233.33 293.993 232.51 295.076 231.725C296.006 231.051 296.999 230.456 297.999 229.888C298.435 229.64 298.952 229.505 299.45 229.405C299.619 229.371 299.952 229.557 300.011 229.716C300.094 229.94 300.073 230.284 299.948 230.484C299.788 230.738 299.508 230.963 299.229 231.086C298.89 231.235 298.784 231.437 298.807 231.777C298.856 232.496 298.901 233.216 298.931 233.937C299.018 236.073 299.103 238.209 299.176 240.345C299.228 241.883 299.28 243.422 299.296 244.961C299.317 246.934 299.315 248.906 299.298 250.878C299.268 254.382 299.225 257.887 299.174 261.391C299.161 262.316 299.072 263.24 299.061 264.165C299.041 265.782 299.035 267.4 299.07 269.016C299.078 269.401 299.148 269.946 299.401 270.132C299.937 270.529 300.589 270.814 301.234 271.013C304.251 271.943 307.268 272.872 310.31 273.712C312.122 274.212 313.971 274.586 315.818 274.945C317.383 275.248 318.965 275.486 320.547 275.683C322.234 275.893 323.93 276.043 325.625 276.177C326.69 276.261 327.761 276.253 328.828 276.311C330.322 276.393 330.32 276.403 330.506 274.917C330.522 274.787 330.612 274.665 330.622 274.537C330.751 272.725 330.912 270.915 330.979 269.101C331.02 268.008 330.905 266.91 330.873 265.814C330.826 264.194 330.779 262.573 330.752 260.952C330.734 259.827 330.749 258.7 330.749 257.452ZM373.068 239.21C373.213 239.395 373.362 239.578 373.502 239.768C374.853 241.603 376.243 243.411 377.538 245.285C378.507 246.687 379.374 248.161 380.24 249.63C380.464 250.011 380.537 250.48 380.177 250.903C379.615 251.564 379.033 252.216 378.544 252.93C377.424 254.566 376.341 256.229 375.277 257.902C375.062 258.241 374.791 258.752 374.902 259.053C375.475 260.618 376.328 262.047 377.478 263.263C379.226 265.11 381.087 266.831 383.194 268.276C383.584 268.544 384.023 268.893 383.937 269.493C383.868 269.973 383.76 270.447 383.704 270.928C383.688 271.064 383.792 271.214 383.841 271.357C383.954 271.31 384.084 271.283 384.178 271.21C384.599 270.886 385.021 270.56 385.423 270.213C386.416 269.355 387.522 269.096 388.812 269.405C389.2 269.498 389.856 269.465 390.05 269.221C392.061 266.686 393.672 263.888 395.192 261.042C395.976 259.575 396.669 258.053 397.316 256.519C397.985 254.934 398.558 253.307 399.139 251.686C399.189 251.546 399.037 251.249 398.892 251.137C398.356 250.725 397.698 250.443 397.241 249.964C395.101 247.72 394.187 244.946 394.033 241.912C393.984 240.949 394.113 239.964 394.275 239.008C394.451 237.973 394.688 236.935 395.039 235.949C395.232 235.408 395.179 235.07 394.824 234.669C393.395 233.056 391.961 231.445 390.57 229.798C389.039 227.987 387.573 226.12 386.042 224.309C384.445 222.421 382.805 220.57 381.183 218.703C380.098 217.453 379.027 216.191 377.922 214.958C376.593 213.474 375.23 212.02 373.889 210.546C373.257 209.85 372.603 209.169 372.033 208.425C371.184 207.316 370.431 206.134 369.582 205.024C367.79 202.684 366.365 200.125 365.025 197.513C364.494 196.478 364.558 196.743 363.868 197.439C362.221 199.099 360.627 200.814 358.955 202.449C357.24 204.125 355.289 205.509 353.272 206.803C350.815 208.378 348.265 209.767 345.548 210.845C345.162 210.998 344.748 211.177 344.458 211.459C343.56 212.332 342.732 213.278 341.845 214.164C339.815 216.188 337.914 218.315 336.377 220.746C335.075 222.807 333.641 224.818 333.011 227.209C332.522 229.07 332.154 230.973 331.882 232.879C331.697 234.172 331.734 235.502 331.74 236.816C331.75 239.092 331.808 241.368 331.856 243.644C331.887 245.08 331.925 246.517 331.98 247.953C332.05 249.803 332.14 251.652 332.223 253.502C332.304 255.29 332.393 257.078 332.466 258.866C332.518 260.138 332.602 261.412 332.581 262.684C332.531 265.681 332.403 268.676 332.356 271.672C332.334 273.088 332.312 274.495 331.991 275.883C331.964 276.002 332.106 276.259 332.215 276.29C332.532 276.381 332.875 276.439 333.203 276.422C334.378 276.362 335.551 276.264 336.725 276.186C338.001 276.101 339.281 276.059 340.553 275.93C342.192 275.764 343.83 275.57 345.456 275.312C346.748 275.108 348.026 274.813 349.301 274.515C350.471 274.242 351.646 273.966 352.788 273.594C355.057 272.853 357.345 272.143 359.548 271.234C361.243 270.535 362.882 269.653 364.268 268.398C364.566 268.128 364.812 267.872 364.792 267.38C364.712 265.433 364.704 263.484 364.651 261.536C364.579 258.949 364.507 256.362 364.402 253.776C364.304 251.349 364.175 248.923 364.034 246.498C363.936 244.807 363.823 243.116 363.662 241.431C363.494 239.669 363.289 237.911 363.048 236.158C362.844 234.678 362.556 233.209 362.323 231.732C362.203 230.975 361.946 230.399 361.19 229.988C360.375 229.546 360.632 228.8 361.109 228.611C361.442 228.478 361.959 228.53 362.285 228.703C364.052 229.638 365.578 230.869 366.899 232.396C368.51 234.258 370.247 236.01 371.917 237.82C372.304 238.24 372.644 238.704 373.068 239.21ZM281.489 182.027C281.677 182.747 281.81 183.489 282.065 184.185C282.843 186.313 283.909 188.299 285.034 190.266C286.912 193.549 289.239 196.477 291.887 199.144C293.215 200.481 294.717 201.65 296.179 202.847C298.213 204.513 300.413 205.946 302.755 207.133C304.56 208.048 306.404 208.9 308.282 209.65C309.917 210.303 311.602 210.865 313.307 211.299C315.046 211.742 316.831 212.015 318.607 212.296C320.004 212.516 321.414 212.681 322.824 212.783C323.883 212.86 324.952 212.794 326.017 212.799C328.123 212.809 330.23 212.832 332.313 212.432C334.059 212.096 335.816 211.813 337.554 211.439C340.873 210.724 344.037 209.538 347.08 208.053C348.533 207.344 349.91 206.478 351.318 205.679C354.005 204.154 356.402 202.235 358.665 200.153C359.8 199.109 360.837 197.957 361.883 196.822C362.513 196.139 363.141 195.439 363.657 194.67C364.771 193.014 365.9 191.356 366.86 189.61C367.899 187.721 368.877 185.778 369.658 183.772C370.593 181.37 371.334 178.888 371.657 176.308C371.849 174.774 372.175 173.247 372.241 171.709C372.32 169.868 372.222 168.017 372.134 166.173C372.078 165.013 371.97 163.846 371.763 162.704C371.353 160.431 370.524 158.279 369.677 156.14C369.589 155.917 369.377 155.599 369.031 155.908C368.566 156.323 368.094 156.732 367.657 157.175C367.54 157.294 367.471 157.536 367.494 157.707C367.678 159.099 367.981 160.482 368.071 161.879C368.2 163.89 367.986 165.887 367.624 167.881C367.223 170.096 366.562 172.222 365.616 174.239C364.177 177.307 362.283 180.082 359.624 182.24C358.453 183.19 357.227 184.111 355.91 184.835C353.009 186.429 349.896 187.287 346.546 186.866C345.362 186.717 344.172 186.502 343.027 186.172C341.442 185.715 340 184.914 338.681 183.924C337.275 182.869 336.054 181.633 335.031 180.186C333.976 178.694 333.117 177.11 332.484 175.403C331.728 173.366 331.278 171.254 331.131 169.09C331.052 167.928 331.129 166.757 331.106 165.591C331.102 165.377 331.014 165.102 330.864 164.965C330.143 164.308 329.286 163.962 328.299 163.9C327.097 163.824 325.977 164.174 324.891 164.579C324.248 164.819 323.481 165.069 323.374 165.977C323.271 166.849 323.206 167.736 322.996 168.585C322.208 171.782 321.025 174.818 319.137 177.548C317.545 179.851 315.67 181.869 313.349 183.463C310.658 185.31 307.714 186.474 304.455 186.743C302.963 186.866 301.469 186.72 300.003 186.387C297.234 185.757 294.828 184.445 292.773 182.495C291.436 181.228 290.316 179.801 289.407 178.182C288.525 176.61 287.824 174.979 287.4 173.24C287.117 172.075 286.941 170.879 286.782 169.689C286.648 168.686 286.571 167.671 286.538 166.66C286.515 165.942 286.575 165.216 286.656 164.501C286.758 163.611 286.847 162.71 287.07 161.847C287.478 160.264 287.985 158.707 288.435 157.135C288.47 157.012 288.441 156.804 288.357 156.726C287.593 156.017 286.821 155.317 286.028 154.641C285.819 154.463 285.588 154.308 285.383 154.771C284.65 156.433 283.766 158.034 283.113 159.726C282.533 161.229 282.126 162.808 281.752 164.38C281.422 165.773 281.172 167.194 281.017 168.617C280.85 170.151 280.789 171.699 280.765 173.243C280.743 174.637 280.771 176.039 280.892 177.428C281.021 178.926 281.284 180.412 281.489 182.027ZM299.547 280.792C299.588 282.146 299.629 283.501 299.669 284.855C299.671 284.896 299.665 284.938 299.67 284.978C299.874 286.736 300.083 288.493 300.282 290.251C300.413 291.407 300.499 292.569 300.659 293.721C300.92 295.591 301.219 297.457 301.517 299.322C301.58 299.717 301.587 300.219 301.829 300.467C302.281 300.928 302.84 301.358 303.436 301.591C305.093 302.237 306.816 302.087 308.51 301.712C308.793 301.65 309.134 301.318 309.231 301.036C310.099 298.528 310.967 296.026 311.367 293.375C311.635 291.594 311.833 289.84 311.606 288.045C311.574 287.795 311.754 287.37 311.956 287.271C312.327 287.089 312.65 287.375 312.803 287.73C312.9 287.956 312.94 288.226 312.929 288.473C312.862 289.996 312.833 291.524 312.672 293.037C312.542 294.265 312.317 295.494 312.004 296.688C311.605 298.211 311.083 299.701 310.6 301.201C310.318 302.076 309.909 302.876 308.916 303.103C308.345 303.234 307.751 303.31 307.166 303.32C306.447 303.333 305.719 303.303 305.009 303.196C304.253 303.083 303.513 302.862 302.768 302.683C302.596 302.641 302.43 302.577 302.261 302.523C302.216 302.729 302.103 302.947 302.137 303.14C302.447 304.912 302.682 306.704 303.138 308.439C303.574 310.101 304.249 311.701 304.81 313.33C304.918 313.642 305.033 313.679 305.368 313.562C307.497 312.815 309.696 312.284 311.933 312.085C314.317 311.874 316.733 311.989 319.08 312.455C321.454 312.927 323.785 313.624 326.116 314.288C326.629 314.434 326.856 314.382 327.069 313.914C328.039 311.777 329.045 309.655 330.006 307.514C330.61 306.169 331.157 304.798 331.732 303.439C332.255 302.202 332.793 300.972 333.3 299.728C333.471 299.31 333.816 299.195 334.144 299.305C334.404 299.392 334.651 299.677 334.785 299.935C334.939 300.232 334.93 300.609 335.048 300.93C335.776 302.921 336.506 304.911 337.263 306.891C338.148 309.205 339.054 311.512 339.974 313.813C340.053 314.013 340.205 314.179 340.572 314.043C341.621 313.652 342.698 313.326 343.782 313.045C346.534 312.334 349.339 311.916 352.177 311.83C353.47 311.791 354.793 311.85 356.061 312.085C357.766 312.401 359.43 312.93 361.113 313.366C361.403 313.441 361.665 313.48 361.71 313.048C361.758 312.583 361.842 312.122 361.916 311.661C362.048 310.836 362.197 310.013 362.315 309.187C362.416 308.486 362.472 307.78 362.569 307.079C362.722 305.978 362.926 304.884 363.047 303.78C363.17 302.652 363.197 301.513 363.313 300.383C363.359 299.937 363.215 299.941 362.91 300.104C362.54 300.301 362.179 300.513 361.809 300.709C360.26 301.529 358.647 302.127 356.86 302.105C355.739 302.091 354.651 301.358 354.338 300.373C354.072 299.54 353.874 298.684 353.582 297.86C352.646 295.218 352.482 292.464 352.38 289.703C352.348 288.822 352.404 287.93 352.522 287.056C352.555 286.806 352.917 286.477 353.185 286.41C353.638 286.295 353.709 286.727 353.711 287.062C353.713 287.393 353.598 287.725 353.604 288.055C353.629 289.41 353.656 290.766 353.73 292.119C353.768 292.82 353.858 293.527 354.01 294.212C354.29 295.481 354.618 296.741 354.955 297.996C355.107 298.562 355.298 299.122 355.525 299.663C356.006 300.81 356.902 301.093 358.37 300.723C359.927 300.331 361.296 299.558 362.647 298.745C362.959 298.558 363.325 298.234 363.394 297.914C363.569 297.109 363.601 296.27 363.667 295.443C363.761 294.27 363.843 293.096 363.914 291.921C364.005 290.421 364.087 288.919 364.159 287.417C364.213 286.309 364.247 285.199 364.284 284.09C364.328 282.736 364.349 281.38 364.413 280.027C364.466 278.891 364.568 277.758 364.639 276.624C364.644 276.542 364.587 276.402 364.528 276.382C364.416 276.344 364.254 276.328 364.16 276.383C363.697 276.655 363.247 276.951 362.796 277.244C360.525 278.723 358.067 279.848 355.559 280.826C353.265 281.72 350.896 282.432 348.532 283.132C347.063 283.567 345.554 283.886 344.044 284.153C342.672 284.396 341.278 284.526 339.889 284.654C337.83 284.844 335.77 285.033 333.705 285.135C332.56 285.192 331.406 285.079 330.257 285.028C328.612 284.954 326.964 284.902 325.323 284.773C323.913 284.662 322.506 284.486 321.105 284.285C319.316 284.029 317.534 283.72 315.749 283.432C313.19 283.02 310.695 282.356 308.218 281.598C305.287 280.701 302.408 279.699 299.806 278.032C299.708 277.969 299.478 277.922 299.461 277.953C299.379 278.098 299.304 278.274 299.309 278.437C299.328 278.973 299.376 279.509 299.427 280.044C299.447 280.254 299.506 280.461 299.547 280.792ZM286.403 127.73C286.403 127.771 286.42 127.827 286.4 127.851C284.448 130.137 283.049 132.777 281.622 135.393C280.76 136.974 279.955 138.589 279.208 140.227C278.518 141.74 277.849 143.275 277.335 144.853C276.668 146.899 276.117 148.985 275.607 151.077C275.273 152.448 275.081 153.855 274.863 155.253C274.739 156.052 274.672 156.861 274.614 157.668C274.516 159.032 274.394 160.398 274.382 161.764C274.373 162.732 274.519 163.703 274.612 164.671C274.725 165.849 274.758 167.046 275.001 168.198C275.363 169.914 275.782 171.63 276.354 173.285C277.075 175.375 277.971 177.404 278.806 179.454C278.857 179.58 279.036 179.655 279.155 179.754C279.158 179.614 279.179 179.472 279.163 179.335C279.041 178.281 278.86 177.231 278.803 176.174C278.759 175.356 278.875 174.531 278.908 173.708C278.955 172.497 278.959 171.283 279.041 170.074C279.123 168.853 279.197 167.622 279.419 166.422C279.757 164.593 280.162 162.771 280.642 160.974C281.411 158.097 282.797 155.481 284.175 152.856C285.64 150.066 287.572 147.639 289.756 145.413C291.35 143.788 293.032 142.239 294.771 140.77C296.36 139.428 298.117 138.307 299.98 137.354C301.706 136.472 303.429 135.596 305.316 135.111C306.762 134.739 308.208 134.354 309.674 134.074C310.773 133.864 311.901 133.795 313.019 133.692C314.935 133.515 316.852 133.306 318.773 133.209C321.984 133.048 325.184 133.356 328.384 133.569C329.212 133.624 330.041 133.698 330.861 133.818C332.38 134.04 333.89 134.328 335.41 134.54C336.582 134.704 337.762 134.825 338.942 134.909C340.543 135.022 342.148 135.115 343.753 135.154C345.807 135.203 347.846 135.034 349.877 134.683C351.735 134.363 353.499 133.771 355.199 132.995C357.71 131.849 359.768 130.057 361.729 128.169C362.778 127.158 363.7 126.012 364.649 124.902C366.362 122.897 367.695 120.636 368.942 118.328C369.944 116.474 370.819 114.558 371.288 112.483C371.483 111.624 371.705 110.771 371.893 109.911C371.93 109.745 371.869 109.557 371.853 109.379C371.699 109.442 371.536 109.49 371.392 109.571C370.793 109.907 370.215 110.284 369.601 110.588C367.789 111.486 365.836 111.872 363.838 111.926C362.055 111.975 360.267 111.896 358.485 111.812C356.875 111.736 355.265 111.617 353.664 111.443C351.816 111.243 349.977 110.956 348.133 110.718C346.479 110.505 344.82 110.326 343.168 110.097C341.567 109.876 339.977 109.573 338.374 109.376C336.666 109.166 334.95 108.928 333.235 108.902C331.08 108.869 328.922 109.04 326.766 109.119C325.514 109.165 324.26 109.185 323.009 109.247C321.793 109.307 320.571 109.346 319.366 109.502C317.574 109.734 315.765 109.946 314.015 110.375C311.449 111.006 308.907 111.758 306.394 112.579C304.339 113.252 302.393 114.217 300.535 115.329C298.636 116.466 296.755 117.629 295.104 119.134C293.813 120.31 292.363 121.32 291.131 122.551C289.5 124.182 288.013 125.956 286.403 127.73ZM297.643 150.149C300.987 150.149 304.331 150.161 307.675 150.143C309.111 150.136 310.548 150.042 311.985 150.035C312.978 150.03 313.971 150.142 314.964 150.14C316.094 150.138 317.236 150.155 318.35 150.002C319.568 149.835 320.182 150.538 320.662 151.404C321.658 153.203 322.493 155.075 322.891 157.113C322.938 157.353 323.043 157.582 323.121 157.815C323.327 157.717 323.532 157.618 323.737 157.52C323.822 157.478 323.908 157.438 323.993 157.397C325.558 156.625 327.183 156.233 328.941 156.531C330.179 156.741 331.343 157.119 332.255 158.007C332.61 158.353 332.661 158.137 332.79 157.875C333.541 156.344 334.289 154.811 335.048 153.283C336.069 151.231 337.66 150.23 340.023 150.25C347.311 150.31 354.6 150.252 361.888 150.291C363.067 150.298 364.132 150.154 365.138 149.507C365.524 149.258 365.559 149.088 365.299 148.767C364.443 147.709 363.64 146.603 362.725 145.601C361.119 143.843 359.275 142.347 357.357 140.936C355.945 139.899 354.433 139.053 352.82 138.389C351.701 137.929 350.561 137.509 349.407 137.144C348.856 136.969 348.25 136.888 347.672 136.899C346.701 136.918 345.732 137.118 344.764 137.11C343.466 137.1 342.17 136.967 340.873 136.881C339.719 136.804 338.563 136.744 337.413 136.629C336.065 136.495 334.722 136.315 333.378 136.143C331.824 135.945 330.276 135.69 328.718 135.543C326.89 135.369 325.054 135.192 323.221 135.185C320.757 135.175 318.291 135.287 315.83 135.421C314.133 135.514 312.444 135.738 310.75 135.898C308.92 136.071 307.125 136.459 305.42 137.119C303.605 137.821 301.799 138.588 300.089 139.511C297.769 140.764 295.662 142.364 293.721 144.148C292.421 145.343 291.246 146.675 290.019 147.95C289.942 148.03 289.864 148.141 289.851 148.245C289.834 148.383 289.827 148.597 289.908 148.66C290.476 149.101 291.072 149.504 291.649 149.933C292.181 150.328 292.658 150.734 293.409 150.297C293.735 150.107 294.22 150.162 294.633 150.155C295.595 150.137 296.558 150.149 297.643 150.149ZM303.171 151.746C301.611 151.787 300.051 151.836 298.491 151.862C298.161 151.867 297.828 151.747 297.498 151.754C296.587 151.772 295.636 152.01 294.774 151.823C293.653 151.58 293.199 152.112 292.652 152.891C291.093 155.113 289.933 157.508 289.148 160.105C288.523 162.175 288.259 164.295 288.135 166.436C288.095 167.131 288.229 167.834 288.24 168.534C288.268 170.224 288.606 171.859 289.111 173.458C290.033 176.382 291.496 178.997 293.738 181.118C295.01 182.32 296.431 183.345 298.102 183.915C299.291 184.321 300.511 184.731 301.748 184.873C303 185.016 304.293 184.882 305.561 184.777C307.079 184.652 308.503 184.138 309.875 183.49C312.597 182.202 314.836 180.323 316.735 177.996C318.477 175.862 319.711 173.459 320.671 170.902C321.458 168.808 321.872 166.613 321.992 164.398C322.085 162.681 322.003 160.926 321.746 159.225C321.41 157.003 320.665 154.884 319.597 152.874C319.168 152.067 318.647 151.74 317.788 151.742C312.957 151.751 308.125 151.746 303.171 151.746ZM332.714 168.514C332.755 168.988 332.755 169.471 332.845 169.936C333.1 171.258 333.314 172.596 333.687 173.887C334.315 176.059 335.386 178.016 336.834 179.769C338.12 181.325 339.583 182.651 341.389 183.58C342.829 184.32 344.331 184.823 345.943 185.05C347.629 185.288 349.311 185.236 350.946 184.886C353.137 184.417 355.207 183.531 356.988 182.159C358.368 181.096 359.709 179.937 360.864 178.639C362.516 176.785 363.723 174.619 364.681 172.311C365.704 169.848 366.272 167.279 366.468 164.647C366.607 162.776 366.512 160.894 366.146 159.025C365.698 156.738 364.947 154.579 363.771 152.577C363.604 152.293 363.141 152.017 362.814 152.016C354.666 151.985 346.519 151.989 338.371 152.002C338.14 152.003 337.828 152.096 337.694 152.26C337.268 152.784 336.878 153.344 336.528 153.922C335.352 155.858 334.332 157.879 333.717 160.062C333.322 161.468 333.107 162.927 332.844 164.369C332.721 165.044 332.627 165.731 332.605 166.416C332.584 167.072 332.673 167.732 332.714 168.514ZM355.501 137.496C356.164 137.872 356.854 138.208 357.485 138.631C360.013 140.331 362.462 142.132 364.446 144.479C365.225 145.4 366.018 146.312 366.742 147.276C368.356 149.426 369.773 151.693 370.934 154.131C372.157 156.7 373.217 159.3 373.764 162.113C374.196 164.336 374.611 166.549 374.604 168.822C374.6 170.152 374.598 171.483 374.611 172.813C374.612 172.953 374.719 173.093 374.777 173.232C374.842 173.103 374.934 172.98 374.968 172.843C375.221 171.821 375.474 170.798 375.707 169.772C376.127 167.918 376.571 166.069 376.935 164.204C377.307 162.301 377.628 160.387 377.909 158.468C378.126 156.988 378.268 155.496 378.406 154.006C378.554 152.402 378.741 150.794 378.761 149.186C378.792 146.625 378.733 144.061 378.646 141.501C378.578 139.483 378.43 137.467 378.281 135.453C378.2 134.354 378.051 133.26 377.918 132.167C377.721 130.552 377.549 128.932 377.294 127.326C377.083 125.996 376.799 124.675 376.49 123.363C376.185 122.064 375.818 120.779 375.461 119.492C374.845 117.272 374.218 115.055 373.585 112.84C373.555 112.732 373.43 112.652 373.349 112.559C373.276 112.665 373.151 112.764 373.137 112.878C372.919 114.608 372.184 116.167 371.452 117.707C370.767 119.148 369.926 120.517 369.125 121.901C367.85 124.106 366.331 126.141 364.603 128.005C363.032 129.7 361.383 131.331 359.472 132.653C358.383 133.405 357.291 134.182 356.107 134.757C355.042 135.273 353.848 135.522 352.717 135.908C352.585 135.953 352.493 136.113 352.382 136.22C352.461 136.277 352.532 136.354 352.619 136.387C353.558 136.741 354.499 137.087 355.501 137.496ZM297.581 275.141C297.54 274.543 297.466 273.946 297.464 273.349C297.452 270.312 297.443 267.274 297.464 264.237C297.478 262.084 297.536 259.931 297.583 257.778C297.617 256.198 297.7 254.618 297.695 253.038C297.689 250.803 297.624 248.568 297.581 246.332C297.543 244.404 297.496 242.476 297.459 240.548C297.415 238.191 297.376 235.832 297.336 233.475C297.333 233.27 297.354 233.063 297.33 232.861C297.309 232.694 297.238 232.532 297.189 232.368C297.02 232.43 296.817 232.45 296.688 232.559C294.184 234.679 291.633 236.747 289.212 238.958C287.394 240.618 285.705 242.426 284.037 244.24C282.53 245.879 281.093 247.586 279.698 249.322C279.092 250.076 278.68 250.985 278.155 251.807C277.977 252.086 278.064 252.176 278.297 252.364C279.624 253.431 280.982 254.47 282.221 255.634C283.688 257.013 285.086 258.471 286.434 259.967C287.432 261.075 288.318 262.286 289.222 263.475C289.832 264.277 290.325 265.174 290.985 265.928C291.494 266.509 291.539 267.086 291.342 267.736C291.062 268.663 291.145 268.833 291.979 269.436C293.485 270.526 294.817 271.8 295.744 273.436C296.305 274.427 296.804 275.453 297.341 276.458C297.39 276.55 297.509 276.604 297.596 276.676C297.632 276.578 297.704 276.476 297.698 276.38C297.672 276.007 297.622 275.636 297.581 275.141ZM366.373 267.525C366.373 268.303 366.387 269.081 366.367 269.858C366.356 270.312 366.283 270.765 366.256 271.22C366.25 271.316 366.321 271.418 366.356 271.517C366.436 271.463 366.547 271.426 366.589 271.351C366.662 271.221 366.679 271.061 366.744 270.925C367.11 270.156 367.43 269.358 367.866 268.63C368.628 267.36 369.67 266.336 370.868 265.462C371.038 265.338 371.113 265.031 371.153 264.795C371.207 264.472 371.123 264.12 371.206 263.81C371.749 261.771 372.489 259.817 373.473 257.934C374.774 255.443 376.245 253.085 378.04 250.922C378.357 250.541 378.836 250.18 378.341 249.487C377.055 247.684 375.866 245.811 374.633 243.97C372.965 241.479 370.953 239.269 368.946 237.056C368.349 236.398 367.729 235.761 367.126 235.108C366.196 234.103 365.275 233.091 364.342 232.09C364.283 232.028 364.119 231.987 364.059 232.025C363.991 232.067 363.946 232.217 363.961 232.307C364.35 234.559 364.791 236.802 365.13 239.061C365.369 240.66 365.496 242.277 365.629 243.89C365.78 245.719 365.896 247.552 366 249.384C366.101 251.171 366.185 252.958 366.245 254.746C366.307 256.57 366.352 258.395 366.368 260.22C366.388 262.614 366.373 265.008 366.373 267.525ZM340.33 335.334C340.271 336.406 340.479 337.437 340.823 338.444C340.959 338.842 341.153 339.13 341.667 339.088C342.981 338.982 344.298 338.884 345.616 338.844C346.944 338.803 348.276 338.848 349.605 338.832C352.289 338.8 354.974 338.77 357.657 338.689C357.978 338.68 358.403 338.44 358.586 338.173C359.304 337.127 359.731 335.945 359.725 334.666C359.721 333.82 359.626 332.966 359.484 332.13C359.096 329.834 357.832 328.123 355.863 326.912C353.578 325.506 351.086 325.195 348.549 325.843C345.888 326.522 343.675 327.987 342.06 330.279C341.013 331.765 340.367 333.377 340.33 335.334ZM322.027 327.963C320.034 326.541 317.873 325.729 315.366 325.787C313.344 325.835 311.6 326.428 309.961 327.596C307.529 329.328 306.902 331.886 306.723 334.586C306.659 335.563 307.116 336.604 307.466 337.569C307.695 338.2 308.135 338.857 308.878 338.933C309.836 339.032 310.813 338.943 311.781 338.961C313.279 338.989 314.776 339.059 316.274 339.075C318.135 339.096 319.998 339.066 321.86 339.086C322.928 339.097 323.995 339.162 325.063 339.203C325.336 339.213 325.483 339.18 325.612 338.832C326.141 337.406 326.321 335.978 326.101 334.461C325.943 333.377 325.678 332.355 325.093 331.436C324.271 330.145 323.349 328.934 322.027 327.963ZM289.289 272.131C288.121 273.749 286.951 275.359 285.399 276.653C284.792 277.158 284.85 277.306 285.461 277.768C286.816 278.792 287.777 280.119 288.364 281.707C288.959 283.316 289.089 284.994 288.975 286.689C288.891 287.929 288.78 289.171 288.602 290.401C288.415 291.691 288.397 292.949 288.858 294.189C289.661 296.348 291.798 296.945 293.363 295.293C294.077 294.541 294.628 293.625 295.197 292.747C296.533 290.687 297.051 288.351 297.316 285.961C297.433 284.903 297.409 283.815 297.316 282.752C297.215 281.616 297.009 280.481 296.756 279.367C296.369 277.663 295.532 276.133 294.613 274.677C293.612 273.09 292.376 271.674 290.752 270.667C290.604 270.575 290.226 270.585 290.152 270.689C289.844 271.12 289.611 271.605 289.289 272.131ZM368.707 270.227C368.502 270.695 368.278 271.156 368.096 271.633C367.333 273.629 366.817 275.683 366.75 277.828C366.732 278.423 366.796 279.026 366.871 279.619C366.99 280.565 367.067 281.53 367.316 282.445C367.613 283.537 368.058 284.591 368.464 285.651C369.444 288.208 370.99 290.345 373.232 291.945C374.135 292.589 375.228 292.58 376.145 291.89C376.979 291.261 377.438 290.27 377.081 289.173C376.687 287.967 376.283 286.761 375.818 285.582C375.259 284.165 374.865 282.709 374.871 281.193C374.876 280.199 374.975 279.172 375.245 278.22C375.689 276.655 376.373 275.185 377.759 274.166C377.867 274.087 377.878 273.716 377.789 273.566C377.652 273.335 377.381 273.188 377.183 272.99C376.238 272.043 375.237 271.144 374.376 270.127C373.576 269.184 372.934 268.109 372.209 267.103C372.015 266.834 371.789 266.731 371.447 266.981C370.292 267.828 369.495 268.964 368.707 270.227ZM360.722 318.504C361.272 317.873 361.837 317.254 362.366 316.606C362.793 316.083 362.737 315.937 362.145 315.625C360.669 314.846 359.103 314.319 357.468 314.031C356.007 313.775 354.531 313.452 353.06 313.447C351.247 313.441 349.42 313.651 347.622 313.922C345.917 314.179 344.22 314.558 342.56 315.028C341.275 315.392 340.049 315.97 338.808 316.481C338.626 316.556 338.389 316.789 338.386 316.952C338.376 317.63 338.396 318.318 338.511 318.984C338.56 319.265 338.778 319.523 339.22 319.572C340.255 319.686 341.311 319.817 342.294 320.139C343.238 320.448 344.093 321.023 345.005 321.441C345.231 321.545 345.595 321.607 345.783 321.497C348.503 319.91 351.532 319.641 354.564 319.442C356.017 319.347 357.484 319.371 358.94 319.447C359.744 319.489 360.293 319.263 360.722 318.504ZM304.215 315.925C303.936 316.15 303.747 316.354 304.085 316.72C304.913 317.614 305.688 318.557 306.53 319.438C306.699 319.614 307.064 319.633 307.345 319.66C307.548 319.679 307.76 319.558 307.968 319.553C310.532 319.498 313.079 319.618 315.622 320.018C317.323 320.286 318.955 320.713 320.457 321.534C320.993 321.827 321.424 321.782 321.85 321.494C323.476 320.39 325.271 319.855 327.222 319.792C327.595 319.78 327.919 319.694 327.95 319.22C327.964 319.011 328.048 318.807 328.072 318.598C328.23 317.207 328.674 317.043 327.1 316.331C326.738 316.168 326.382 315.976 326.003 315.87C324.167 315.36 322.338 314.81 320.479 314.401C318.924 314.06 317.338 313.8 315.752 313.681C314.409 313.581 313.04 313.658 311.697 313.797C310.453 313.926 309.232 314.261 307.996 314.471C306.663 314.698 305.481 315.306 304.215 315.925ZM344.2 277.291C342.88 277.413 341.559 277.523 340.243 277.677C340.093 277.695 339.878 277.947 339.854 278.115C339.624 279.663 339.421 281.215 339.242 282.77C339.229 282.881 339.474 283.143 339.569 283.129C340.95 282.923 342.335 282.728 343.699 282.439C345.892 281.975 348.1 281.543 350.249 280.916C353.631 279.929 356.895 278.606 360.052 277.033C360.531 276.794 361.234 276.614 360.603 275.838C360.573 275.801 360.602 275.718 360.599 275.657C360.559 274.856 360.504 274.055 360.482 273.253C360.469 272.798 360.372 272.633 359.879 272.858C358.985 273.264 358.073 273.635 357.149 273.969C352.961 275.479 348.648 276.501 344.2 277.291ZM304.706 276.492C304.706 276.861 304.659 277.237 304.718 277.595C304.796 278.074 304.728 278.659 305.337 278.885C305.816 279.063 306.301 279.228 306.791 279.377C308.7 279.956 310.602 280.564 312.528 281.085C313.715 281.406 314.936 281.611 316.149 281.83C317.221 282.023 318.304 282.16 319.382 282.328C320.669 282.529 321.953 282.747 323.243 282.922C323.351 282.936 323.605 282.677 323.607 282.541C323.634 281.081 323.633 279.621 323.611 278.161C323.609 277.993 323.455 277.697 323.34 277.68C322.52 277.559 321.691 277.496 320.866 277.413C320.061 277.332 319.246 277.301 318.453 277.157C316.842 276.865 315.232 276.558 313.642 276.175C311.08 275.558 308.534 274.876 305.982 274.218C305.501 274.094 305.165 274.163 305.068 274.74C304.976 275.288 304.829 275.827 304.706 276.492ZM360.231 328.577C360.354 327.994 360.451 327.403 360.604 326.827C361.281 324.264 361.975 321.706 362.656 319.144C362.683 319.043 362.639 318.923 362.628 318.813C362.517 318.841 362.39 318.844 362.3 318.904C362.206 318.965 362.151 319.084 362.073 319.173C361.598 319.714 361.15 320.283 360.631 320.777C360.424 320.974 360.001 321.161 359.773 321.081C358.61 320.672 357.454 320.744 356.266 320.889C354.288 321.132 352.296 321.263 350.322 321.531C349.172 321.688 348.078 322.087 347.058 322.687C346.526 323.001 345.95 323.415 345.278 323.187C344.762 323.013 344.278 322.731 343.801 322.46C342.443 321.688 341.018 321.162 339.432 321.139C339.028 321.133 338.933 321.325 338.981 321.659C339.054 322.159 339.12 322.661 339.229 323.154C339.67 325.159 340.125 327.162 340.579 329.164C340.597 329.24 340.664 329.305 340.708 329.376C340.787 329.32 340.876 329.274 340.943 329.206C341.949 328.199 342.856 327.062 343.978 326.206C345.995 324.669 348.357 323.948 350.902 323.988C351.856 324.003 352.812 324.185 353.757 324.346C355.437 324.632 356.892 325.409 358.099 326.592C358.716 327.196 359.215 327.922 359.758 328.601C359.928 328.813 360.051 328.854 360.231 328.577ZM327.063 324.155C327.208 323.437 327.355 322.719 327.496 322.001C327.537 321.793 327.564 321.582 327.597 321.372C327.334 321.361 327.072 321.343 326.809 321.341C326.694 321.341 326.579 321.382 326.463 321.39C325.132 321.482 323.913 321.924 322.809 322.648C321.729 323.357 320.677 323.707 319.489 322.877C319.092 322.599 318.611 322.432 318.153 322.255C316.306 321.544 314.346 321.37 312.407 321.169C310.881 321.011 309.332 321.061 307.793 321.026C307.661 321.023 307.512 321.043 307.397 321.103C306.696 321.464 306.099 321.273 305.6 320.739C305.182 320.291 304.819 319.793 304.418 319.329C304.319 319.215 304.169 319.147 304.042 319.057C304.018 319.229 303.937 319.416 303.979 319.57C304.149 320.192 304.39 320.796 304.545 321.421C305.143 323.837 305.717 326.259 306.308 328.676C306.337 328.796 306.442 328.897 306.511 329.007C306.606 328.902 306.715 328.806 306.79 328.689C306.882 328.546 306.919 328.366 307.021 328.234C308.144 326.778 309.552 325.695 311.249 324.979C313.403 324.07 315.651 323.937 317.898 324.37C319.381 324.655 320.818 325.191 322.11 326.051C323.471 326.957 324.714 327.967 325.592 329.372C325.644 329.456 325.733 329.518 325.804 329.59C325.856 329.509 325.934 329.434 325.954 329.346C326.328 327.658 326.695 325.968 327.063 324.155ZM256.061 249.221C256.183 249.047 256.323 248.882 256.427 248.697C257.81 246.213 258.967 243.656 258.5 240.706C258.365 239.849 258.063 239.011 257.762 238.191C257.642 237.864 257.35 237.711 256.941 238.005C255.386 239.124 253.805 240.206 252.23 241.297C251.421 241.858 250.593 242.393 249.801 242.977C249.678 243.068 249.603 243.405 249.672 243.548C250.803 245.884 251.95 248.213 253.119 250.53C253.442 251.17 253.94 251.261 254.481 250.787C255.015 250.318 255.495 249.787 256.061 249.221ZM337.751 282.02C337.914 280.779 338.091 279.54 338.22 278.296C338.232 278.181 337.941 277.923 337.791 277.923C336.826 277.928 335.862 278.013 334.897 278.022C332.935 278.041 330.971 278.055 329.009 278.017C327.958 277.996 326.91 277.859 325.859 277.784C325.401 277.752 325.115 277.995 325.106 278.438C325.083 279.726 325.086 281.014 325.105 282.302C325.111 282.723 325.25 283.12 325.754 283.182C326.286 283.246 326.823 283.275 327.358 283.308C328.118 283.355 328.879 283.432 329.638 283.425C332.116 283.404 334.594 283.36 337.07 283.292C337.26 283.287 337.507 283.066 337.611 282.88C337.727 282.673 337.71 282.392 337.751 282.02ZM398.066 238.288C397.603 237.784 397.148 237.273 396.674 236.779C396.298 236.386 396.123 236.421 395.988 236.984C395.785 237.828 395.557 238.682 395.508 239.542C395.429 240.936 395.315 242.365 395.53 243.73C395.791 245.382 396.512 246.938 397.535 248.284C397.969 248.857 398.589 249.324 399.204 249.713C399.805 250.092 399.928 249.433 400.013 249.095C400.539 247.015 401.042 244.928 401.486 242.83C401.601 242.286 401.587 241.717 401.044 241.234C400.024 240.326 399.095 239.317 398.066 238.288ZM379.394 267.279C378.69 266.657 377.95 266.07 377.29 265.405C376.042 264.148 374.832 262.853 374.065 261.22C374.016 261.115 373.896 261.044 373.809 260.957C373.746 261.071 373.666 261.179 373.623 261.301C373.348 262.087 373.062 262.871 372.823 263.669C372.747 263.922 372.726 264.242 372.813 264.483C372.972 264.926 373.235 265.331 373.447 265.755C374.518 267.899 375.967 269.759 377.788 271.307C379.135 272.452 380.552 273.517 381.943 274.611C382.026 274.676 382.158 274.679 382.268 274.711C382.287 274.603 382.354 274.476 382.319 274.391C381.719 272.928 382.301 271.444 382.264 269.972C382.255 269.624 382.192 269.482 381.959 269.303C381.119 268.656 380.289 267.996 379.394 267.279ZM358.818 340.186C357.462 340.268 356.106 340.388 354.748 340.423C352.067 340.492 349.385 340.525 346.703 340.551C344.699 340.57 342.695 340.549 340.691 340.557C340.041 340.56 339.972 340.705 339.954 341.599C339.942 342.15 340.198 342.295 340.694 342.279C342.374 342.225 344.054 342.176 345.734 342.155C349.684 342.104 353.634 342.069 357.583 342.029C358.094 342.024 358.606 342.042 359.116 342.021C359.279 342.014 359.553 341.95 359.58 341.856C359.7 341.44 359.842 340.989 359.778 340.583C359.751 340.411 359.235 340.316 358.818 340.186ZM306.917 342.09C307.465 342.151 308.011 342.258 308.56 342.267C311.939 342.322 315.318 342.367 318.698 342.393C321.112 342.412 323.526 342.387 325.94 342.406C326.392 342.41 326.639 342.334 326.578 341.815C326.525 341.363 326.74 340.801 325.935 340.793C324.253 340.776 322.573 340.704 320.891 340.68C317.328 340.63 313.764 340.595 310.201 340.555C310.078 340.553 309.955 340.559 309.833 340.554C308.97 340.514 308.107 340.456 307.244 340.447C307.095 340.446 306.826 340.644 306.816 340.767C306.78 341.183 306.835 341.607 306.917 342.09ZM324.054 163.17C325.491 162.576 326.968 162.217 328.544 162.299C329.398 162.344 330.194 162.476 330.899 162.999C331.044 163.107 331.284 163.288 331.371 162.865C331.548 162.003 331.78 161.153 331.968 160.294C331.993 160.182 331.935 159.997 331.85 159.924C331.325 159.479 330.842 158.914 330.233 158.65C327.979 157.673 325.809 158.093 323.761 159.312C323.566 159.428 323.389 159.77 323.398 160C323.435 161.051 323.552 162.099 323.62 163.15C323.654 163.682 323.831 163.379 324.054 163.17ZM283.7 270.227C283.327 271.026 283.341 271.838 283.572 272.674C283.801 273.503 283.986 274.344 284.192 275.18C284.214 275.27 284.241 275.359 284.266 275.448C284.364 275.387 284.481 275.344 284.556 275.262C285.353 274.392 286.192 273.554 286.926 272.632C288.002 271.28 288.913 269.814 289.592 268.217C289.791 267.75 289.778 267.284 289.477 266.835C289.093 266.262 288.743 265.666 288.366 265.088C288.167 264.783 287.921 264.79 287.666 265.033C286.087 266.533 284.663 268.15 283.7 270.227ZM330.38 223.056C330.298 223.41 330.197 223.762 330.138 224.12C329.954 225.229 330.918 225.928 331.145 226.891C331.258 226.845 331.465 226.811 331.472 226.752C331.619 225.588 332.141 224.576 332.714 223.582C334.032 221.293 335.29 218.962 337.074 216.985C338.289 215.639 339.552 214.336 340.789 213.01C340.879 212.914 340.928 212.781 340.996 212.665C340.848 212.628 340.681 212.527 340.555 212.564C340.083 212.701 339.619 212.868 339.166 213.058C339.072 213.097 338.956 213.326 338.992 213.394C339.374 214.135 338.723 214.328 338.338 214.637C336.899 215.795 335.43 216.916 334.007 218.092C333.111 218.832 332.276 219.647 331.411 220.425C331.239 220.581 331.038 220.706 330.874 220.869C330.289 221.453 330.369 222.203 330.38 223.056ZM335.478 213.904C334.69 214.027 333.905 214.184 333.113 214.266C331.321 214.451 329.526 214.606 327.731 214.759C327.365 214.791 326.994 214.753 326.627 214.77C326.5 214.776 326.377 214.854 326.253 214.899C326.336 215.015 326.393 215.177 326.505 215.239C327.831 215.972 328.724 217.166 329.731 218.238C329.965 218.487 330.09 218.908 330.365 219.037C330.854 219.266 330.917 218.653 331.182 218.432C331.933 217.803 332.634 217.113 333.392 216.493C334.424 215.648 335.492 214.848 336.541 214.025C336.628 213.957 336.693 213.86 336.768 213.776C336.652 213.737 336.526 213.648 336.422 213.668C336.143 213.722 335.874 213.822 335.478 213.904ZM301.451 272.868C300.866 272.653 300.27 272.464 299.702 272.212C299.305 272.036 299.185 272.184 299.181 272.54C299.172 273.336 299.131 274.136 299.198 274.926C299.231 275.317 299.172 275.809 299.642 276.064C300.693 276.633 301.739 277.211 302.79 277.779C302.905 277.841 303.041 277.864 303.167 277.905C303.188 277.772 303.226 277.639 303.229 277.506C303.246 276.789 303.226 276.07 303.274 275.355C303.303 274.938 303.325 274.45 303.548 274.132C303.883 273.654 303.562 273.598 303.277 273.487C302.714 273.267 302.142 273.073 301.451 272.868ZM291.071 152.299C291.394 151.961 291.405 151.656 291 151.364C290.367 150.91 289.725 150.465 289.127 149.969C288.799 149.698 288.544 149.7 288.322 150.02C287.728 150.874 287.149 151.739 286.595 152.619C286.519 152.74 286.553 153.042 286.654 153.142C287.424 153.912 288.221 154.655 289.02 155.395C289.075 155.446 289.283 155.44 289.308 155.397C289.885 154.39 290.445 153.374 291.071 152.299ZM326.879 220.292C327.432 221.085 327.978 221.882 328.545 222.665C328.622 222.772 328.802 222.804 328.935 222.872C328.937 222.74 328.939 222.608 328.94 222.476C328.946 221.956 328.798 221.366 328.995 220.935C329.242 220.396 329.104 220.006 328.815 219.672C328.09 218.834 327.361 217.983 326.522 217.267C325.582 216.464 324.552 215.752 323.497 215.105C323.03 214.819 322.409 214.778 321.852 214.651C321.769 214.632 321.655 214.751 321.555 214.806C321.636 214.874 321.714 214.947 321.8 215.009C322.115 215.232 322.467 215.416 322.744 215.679C323.469 216.364 324.196 217.053 324.858 217.797C325.55 218.574 326.168 219.417 326.879 220.292ZM364.653 270.964C364.682 270.853 364.738 270.742 364.733 270.632C364.727 270.491 364.672 270.352 364.639 270.213C364.525 270.254 364.4 270.276 364.301 270.339C363.702 270.723 363.103 271.108 362.515 271.51C362.17 271.746 361.686 271.852 361.925 272.521C362.099 273.009 362.047 273.582 362.069 274.119C362.089 274.609 362.065 275.101 362.08 275.591C362.083 275.695 362.17 275.797 362.218 275.9C362.29 275.854 362.365 275.811 362.435 275.762C362.99 275.372 363.553 274.994 364.092 274.583C364.271 274.447 364.496 274.235 364.512 274.042C364.593 273.06 364.612 272.073 364.653 270.964ZM366.25 153.896C366.414 154.297 366.596 154.693 366.737 155.102C366.966 155.766 366.955 155.77 367.418 155.308C367.533 155.192 367.649 155.077 367.764 154.961C368.618 154.107 368.639 154.096 368.085 153.058C367.726 152.386 367.306 151.744 366.891 151.103C366.516 150.523 366.043 150.774 365.607 151.014C365.227 151.223 365.044 151.516 365.295 151.964C365.628 152.559 365.933 153.169 366.25 153.896ZM384.492 274.957C385.266 274.306 386.058 273.675 386.807 272.998C387.411 272.452 387.97 271.854 388.532 271.264C388.593 271.199 388.541 271.026 388.542 270.903C388.073 270.923 387.522 270.792 387.15 270.992C386.154 271.529 385.275 272.283 384.271 272.799C383.715 273.084 383.627 273.418 383.699 273.911C383.752 274.271 383.837 274.628 383.95 274.973C383.993 275.106 384.151 275.202 384.257 275.314C384.315 275.216 384.373 275.117 384.492 274.957ZM282.349 276.247C282.472 276.138 282.664 276.051 282.705 275.917C282.882 275.343 282.534 274.591 281.952 274.351C281.36 274.107 280.748 273.901 280.129 273.737C279.459 273.559 278.796 273.945 278.722 274.642C278.701 274.839 279.231 275.103 279.519 275.322C279.638 275.412 279.777 275.49 279.919 275.532C280.717 275.765 281.395 276.367 282.349 276.247Z" fill="white"/>
<path d="M307.409 240.315C306.624 240.04 305.935 239.705 305.693 238.894C305.56 238.451 305.466 237.982 305.453 237.522C305.39 235.369 305.353 233.216 305.323 231.063C305.306 229.814 305.327 228.565 305.317 227.316C305.313 226.76 305.63 226.423 306.087 226.248C306.277 226.175 306.634 226.238 306.774 226.379C307.53 227.146 308.511 227.388 309.498 227.519C310.492 227.652 311.512 227.69 312.515 227.647C314.311 227.571 316.1 227.371 317.839 226.874C318.618 226.651 318.996 227.003 318.835 227.802C318.781 228.069 318.722 228.34 318.715 228.611C318.665 230.436 318.633 232.262 318.586 234.088C318.554 235.299 318.535 236.513 318.454 237.721C318.402 238.505 318.078 239.245 317.421 239.674C315.98 240.613 314.383 241.126 312.642 241.182C311.05 241.233 309.49 241.112 307.983 240.559C307.806 240.494 307.641 240.397 307.409 240.315ZM317.113 236.568C317.154 236.401 317.221 236.236 317.232 236.066C317.282 235.224 317.329 234.382 317.356 233.539C317.406 231.98 317.432 230.42 317.487 228.862C317.503 228.412 317.27 228.355 316.919 228.41C315.901 228.569 314.888 228.795 313.863 228.873C312.798 228.953 311.722 228.888 310.651 228.892C309.41 228.896 308.235 228.575 307.097 228.13C306.678 227.967 306.532 227.958 306.543 228.46C306.597 230.803 306.624 233.147 306.675 235.491C306.694 236.375 306.728 237.261 306.811 238.14C306.834 238.384 307.005 238.699 307.206 238.826C308.296 239.511 309.548 239.789 310.793 239.92C312.266 240.076 313.741 239.938 315.144 239.338C316.982 238.552 317.195 238.462 317.113 236.568Z" fill="white"/>
<path d="M333.912 244.83C335.037 243.704 335.9 243.586 337.045 244.332C337.847 244.854 338.102 245.63 337.978 246.496C337.854 247.357 337.345 248.004 336.482 248.299C334.884 248.844 333.608 247.681 333.479 246.209C333.441 245.775 333.738 245.311 333.912 244.83ZM335.171 246.764C335.741 247.184 336.068 247.182 336.428 246.731C336.753 246.325 336.753 245.889 336.38 245.531C336.054 245.219 335.661 245.112 335.256 245.449C334.848 245.788 334.794 246.215 335.171 246.764Z" fill="white"/>
<path d="M338.027 261.536C338.866 263.059 338.091 264.611 336.748 264.945C335.537 265.246 334.292 264.848 333.949 263.296C333.639 261.893 334.592 260.529 335.982 260.486C336.774 260.46 337.504 260.811 338.027 261.536ZM337.014 262.734C336.957 262.595 336.923 262.44 336.839 262.32C336.527 261.879 336.126 261.81 335.65 262.056C335.154 262.312 335.241 262.746 335.345 263.141C335.486 263.677 335.965 263.791 336.38 263.625C336.65 263.517 336.806 263.123 337.014 262.734Z" fill="white"/>
<path d="M335.785 235.647C336.634 235.875 337.304 236.224 337.637 237.058C338.086 238.182 337.744 239.139 336.853 239.775C335.846 240.493 334.845 240.303 333.985 239.556C333.124 238.808 333.162 237.456 333.704 236.674C334.202 235.954 334.864 235.622 335.785 235.647ZM335.908 238.78C336.486 238.582 336.499 238.058 336.364 237.659C336.269 237.381 335.846 237.053 335.56 237.045C335.289 237.037 334.9 237.358 334.752 237.636C334.422 238.254 334.98 238.835 335.908 238.78Z" fill="white"/>
<path d="M337.781 255.824C337.135 256.916 335.518 257.067 334.713 256.485C333.136 255.345 333.389 253.304 334.986 252.517C336.093 251.971 337.709 252.42 338.127 253.999C338.303 254.664 338.181 255.241 337.781 255.824ZM336.092 253.705C335.991 253.705 335.848 253.662 335.795 253.712C335.533 253.964 335.155 254.207 335.082 254.516C334.984 254.93 335.293 255.308 335.737 255.414C336.175 255.52 336.578 255.404 336.724 254.91C336.881 254.383 336.737 253.958 336.092 253.705Z" fill="white"/>
<path d="M335.908 269.306C336.794 269.306 337.528 269.752 337.751 270.388C338.001 271.102 337.682 272.195 337.108 272.589C336.512 272.999 335.493 272.959 334.869 272.5C334.395 272.152 334.123 271.18 334.311 270.512C334.502 269.834 335.114 269.354 335.908 269.306ZM335.601 270.534C335.563 270.824 335.437 271.141 335.517 271.393C335.572 271.564 335.929 271.757 336.125 271.732C336.335 271.705 336.582 271.469 336.683 271.261C336.756 271.11 336.681 270.736 336.561 270.672C336.299 270.534 335.966 270.531 335.601 270.534Z" fill="white"/>
<path d="M337.474 228.676C336.976 228.563 336.909 228.162 337.044 227.878C337.15 227.656 337.535 227.448 337.79 227.455C337.986 227.46 338.272 227.779 338.343 228.012C338.46 228.399 338.212 228.633 337.799 228.66C337.7 228.667 337.603 228.691 337.474 228.676Z" fill="white"/>
<path d="M336.553 225.851C336.12 225.993 335.674 226.065 335.567 225.545C335.516 225.299 335.678 224.851 335.876 224.747C336.187 224.583 336.577 224.706 336.814 225.063C337.049 225.419 336.804 225.612 336.553 225.851Z" fill="white"/>
<path d="M327.309 200.269C329.426 200.092 331.455 199.766 333.449 199.228C335.186 198.759 336.863 198.15 338.326 197.07C338.804 196.718 339.254 196.324 339.692 195.923C340.016 195.627 340.325 195.638 340.657 195.868C341.05 196.139 340.957 196.413 340.718 196.762C340.041 197.752 339.098 198.43 338.085 198.996C335.904 200.215 333.513 200.866 331.085 201.358C330.009 201.576 328.9 201.664 327.801 201.733C325.913 201.851 324.022 201.965 322.131 201.966C321.036 201.967 319.94 201.749 318.846 201.613C318.664 201.591 318.466 201.516 318.323 201.404C318.019 201.168 317.669 200.874 317.874 200.449C318.149 199.88 318.73 199.995 319.222 200.031C319.866 200.079 320.503 200.222 321.148 200.261C322.275 200.33 323.406 200.379 324.535 200.383C325.439 200.386 326.344 200.31 327.309 200.269Z" fill="white"/>
<path d="M308.146 289.698C308.292 289.739 308.373 289.796 308.463 289.818C308.87 289.918 308.987 290.246 308.856 290.548C308.776 290.733 308.445 290.887 308.211 290.912C307.199 291.018 306.25 290.7 305.35 290.3C304.267 289.818 303.12 289.409 302.321 288.462C302.166 288.279 302.016 287.968 302.063 287.761C302.196 287.184 302.67 287.168 303.192 287.621C304.595 288.839 306.259 289.464 308.146 289.698Z" fill="white"/>
<path d="M360.937 285.613C361.357 285.439 361.763 285.327 362.132 285.142C362.527 284.944 362.91 284.921 363.122 285.306C363.361 285.739 363.078 286.088 362.677 286.249C361.889 286.566 361.1 286.933 360.275 287.09C359.411 287.256 358.502 287.251 357.618 287.212C357.334 287.199 356.973 286.892 356.825 286.622C356.729 286.448 356.915 286.07 357.061 285.837C357.121 285.741 357.476 285.699 357.577 285.781C358.257 286.329 358.958 286.067 359.666 285.903C360.078 285.808 360.493 285.73 360.937 285.613Z" fill="white"/>
<path d="M299.148 128.989C296.704 130.785 294.561 132.853 292.522 135.022C291.018 136.621 289.59 138.294 288.176 139.974C286.782 141.633 285.428 143.328 284.093 145.036C282.742 146.765 281.406 148.506 280.593 150.585C280.469 150.901 280.209 151.416 279.691 151.205C279.46 151.111 279.189 150.768 279.188 150.536C279.186 150.178 279.385 149.813 279.526 149.462C280.278 147.598 281.491 146.026 282.703 144.453C283.827 142.993 284.939 141.523 286.095 140.089C286.883 139.111 287.715 138.167 288.568 137.244C290.42 135.24 292.233 133.195 294.182 131.288C296.241 129.273 298.527 127.529 301.028 126.056C303.792 124.427 306.702 123.152 309.755 122.218C311.401 121.714 313.105 121.388 314.796 121.046C316.26 120.75 317.739 120.519 319.218 120.308C320.139 120.176 321.071 120.093 322.001 120.06C324.934 119.958 327.869 119.811 330.802 119.835C332.68 119.85 334.556 120.136 336.433 120.298C336.968 120.344 337.503 120.404 338.04 120.417C340.11 120.468 342.187 120.616 344.25 120.513C346.386 120.405 348.502 120.052 350.607 119.594C352.409 119.201 354.153 118.667 355.794 117.876C356.997 117.296 358.145 116.545 359.187 115.708C360.228 114.871 361.105 113.83 362.06 112.885C362.212 112.735 362.391 112.531 362.573 112.512C362.857 112.483 363.215 112.514 363.421 112.674C363.529 112.757 363.477 113.262 363.33 113.423C362.276 114.574 361.241 115.754 360.079 116.79C358.889 117.85 357.49 118.635 356.042 119.323C354.4 120.104 352.69 120.675 350.915 121.023C349.35 121.329 347.771 121.605 346.185 121.752C344.344 121.922 342.489 121.988 340.64 122.001C339.323 122.009 338.005 121.864 336.689 121.77C335.122 121.658 333.559 121.478 331.99 121.416C329.798 121.328 327.603 121.286 325.41 121.295C324.133 121.3 322.852 121.394 321.583 121.539C319.878 121.735 318.187 122.06 316.482 122.255C313.546 122.59 310.703 123.32 307.964 124.38C306.044 125.122 304.203 126.08 302.367 127.021C301.264 127.588 300.239 128.308 299.148 128.989Z" fill="white"/>
<path d="M301.727 134.149C299.943 135.482 298.19 136.785 296.437 138.088C295.952 138.449 295.486 138.84 294.977 139.164C294.623 139.388 294.168 139.546 293.867 139.105C293.579 138.683 293.842 138.309 294.172 138.025C294.893 137.406 295.597 136.759 296.368 136.207C298.524 134.661 300.69 133.126 302.892 131.647C305.628 129.808 308.581 128.409 311.809 127.686C313.343 127.342 314.913 127.14 316.476 126.943C317.872 126.767 319.288 126.744 320.68 126.548C322.264 126.325 323.818 126.526 325.381 126.686C325.422 126.69 325.463 126.685 325.504 126.686C326.715 126.727 327.926 126.783 329.138 126.806C331.782 126.857 334.426 126.914 337.071 126.923C338.671 126.929 340.272 126.868 341.871 126.804C343.271 126.747 344.673 126.683 346.068 126.555C348.246 126.354 350.41 126.043 352.478 125.283C354.058 124.702 355.696 124.222 357.182 123.454C358.597 122.723 359.902 121.746 361.159 120.755C363.212 119.137 364.599 116.929 366.11 114.841C366.624 114.13 366.868 113.969 367.257 114.242C367.743 114.582 367.688 114.958 367.17 115.643C366.35 116.728 365.59 117.858 364.771 118.944C363.651 120.43 362.37 121.761 360.873 122.88C358.302 124.801 355.366 125.96 352.335 126.874C350.902 127.306 349.403 127.539 347.92 127.776C346.902 127.939 345.863 127.988 344.83 128.031C342.368 128.133 339.904 128.202 337.44 128.283C336.106 128.326 334.772 128.4 333.438 128.397C331.755 128.393 330.073 128.341 328.391 128.278C326.848 128.22 325.307 128.087 323.764 128.046C322.202 128.005 320.62 127.884 319.08 128.071C316.365 128.401 313.663 128.875 310.982 129.42C309.886 129.642 308.822 130.133 307.809 130.634C306.19 131.434 304.619 132.331 303.043 133.214C302.588 133.468 302.185 133.814 301.727 134.149Z" fill="white"/>
<path d="M336.277 115.507C334.321 115.67 332.404 115.642 330.565 116.239C330.346 116.31 330.083 116.41 329.888 116.347C329.619 116.26 329.271 116.08 329.182 115.852C329.061 115.542 329.122 115.117 329.59 115.02C330.816 114.764 332.035 114.421 333.275 114.303C335.135 114.128 337.012 114.026 338.879 114.061C340.429 114.09 341.975 114.363 343.524 114.524C344.741 114.65 345.959 114.775 347.177 114.891C347.731 114.944 348.288 115.008 348.844 115.01C350.79 115.018 352.482 114.27 354.026 113.161C354.751 112.64 355.171 112.515 355.463 112.89C355.748 113.254 355.521 113.66 354.85 114.203C353.398 115.378 351.719 116.07 349.909 116.333C348.89 116.482 347.819 116.304 346.774 116.239C345.946 116.186 345.122 116.088 344.297 115.997C342.851 115.839 341.409 115.619 339.958 115.524C338.756 115.445 337.545 115.507 336.277 115.507Z" fill="white"/>
<path d="M299.946 119.96C298.327 121.047 296.725 122.083 295.156 123.169C294.461 123.65 293.784 124.181 293.189 124.779C292.564 125.406 292.031 126.128 291.49 126.833C291.25 127.144 291.103 127.593 290.598 127.366C290.151 127.167 290.022 126.554 290.405 126.085C291.29 125.003 292.151 123.871 293.194 122.955C294.461 121.843 295.867 120.875 297.281 119.949C298.765 118.977 300.307 118.086 301.866 117.239C303.447 116.38 305.055 115.559 306.699 114.831C308.018 114.247 309.34 113.622 310.83 113.53C311.305 113.501 311.653 113.736 311.655 114.087C311.656 114.354 311.293 114.803 311.022 114.866C308.02 115.558 305.387 117.089 302.683 118.459C301.768 118.922 300.878 119.438 299.946 119.96Z" fill="white"/>
<path d="M348.407 131.446C347.78 131.518 347.183 131.562 346.585 131.599C346.129 131.627 345.767 131.382 345.774 130.97C345.777 130.727 346.12 130.347 346.379 130.276C347.105 130.075 347.874 130.036 348.612 129.872C349.769 129.615 350.941 129.385 352.058 129.002C353.9 128.371 355.742 127.712 357.512 126.906C359.007 126.226 360.365 125.282 361.604 124.168C362.683 123.199 363.646 122.156 364.364 120.893C364.505 120.645 364.612 120.373 364.783 120.148C364.988 119.879 365.234 119.684 365.617 119.924C365.968 120.144 366.027 120.408 365.883 120.773C365.067 122.851 363.5 124.313 361.868 125.734C360.59 126.847 359.172 127.74 357.65 128.455C355.205 129.603 352.671 130.514 350.03 131.106C349.503 131.224 348.969 131.313 348.407 131.446Z" fill="white"/>
<path d="M358.787 120.82C357.58 121.568 356.456 122.401 355.213 122.974C353.349 123.832 351.377 124.419 349.361 124.866C348.306 125.099 347.265 125.238 346.192 125.215C345.736 125.206 345.403 125.001 345.384 124.557C345.366 124.102 345.711 123.889 346.15 123.861C347.859 123.752 349.53 123.441 351.146 122.874C352.664 122.341 354.202 121.845 355.67 121.196C356.504 120.826 357.295 120.266 357.965 119.641C359.196 118.495 360.307 117.222 361.508 116.043C361.704 115.85 362.105 115.864 362.411 115.783C362.441 116.101 362.6 116.487 362.476 116.724C362.198 117.252 361.819 117.745 361.408 118.183C360.57 119.076 359.684 119.924 358.787 120.82Z" fill="white"/>
<path d="M277.435 165.873C277.394 167.166 277.343 168.397 277.319 169.629C277.313 169.97 277.25 170.226 276.878 170.294C276.466 170.368 276.125 170.109 276.108 169.792C276.042 168.557 276.054 167.317 276.069 166.08C276.074 165.567 276.143 165.053 276.21 164.544C276.364 163.362 276.53 162.182 276.699 161.002C276.857 159.902 276.991 158.798 277.198 157.707C277.45 156.387 277.735 155.071 278.085 153.774C278.149 153.537 278.596 153.252 278.862 153.256C279.231 153.262 279.475 153.61 279.398 154.039C279.228 154.989 279.044 155.938 278.866 156.887C278.634 158.122 278.397 159.355 278.174 160.591C277.961 161.774 277.746 162.957 277.565 164.144C277.482 164.694 277.476 165.255 277.435 165.873Z" fill="white"/>
<path d="M277.896 146.187C278.346 145.041 278.742 143.915 279.195 142.813C279.446 142.201 279.816 141.639 280.09 141.035C280.309 140.552 280.704 140.436 281.091 140.631C281.52 140.847 281.443 141.308 281.279 141.693C280.725 142.998 280.085 144.272 279.606 145.604C278.79 147.869 278.06 150.165 277.322 152.456C277.174 152.913 277.149 153.409 277.066 153.887C276.993 154.309 276.666 154.419 276.352 154.303C276.139 154.224 275.854 153.919 275.866 153.731C275.907 153.057 275.998 152.371 276.184 151.722C276.714 149.879 277.301 148.052 277.896 146.187Z" fill="white"/>
<path d="M335.386 130.648C337.367 130.707 339.332 130.998 341.248 130.369C341.462 130.299 341.684 130.227 341.874 130.109C342.27 129.862 342.553 130.01 342.801 130.326C343.082 130.683 342.81 130.986 342.575 131.107C341.923 131.443 341.245 131.812 340.537 131.939C339.467 132.132 338.357 132.231 337.272 132.188C336.048 132.138 334.825 131.919 333.615 131.701C333.297 131.643 332.763 131.539 332.951 130.933C333.103 130.439 333.483 130.267 334.035 130.396C334.469 130.496 334.915 130.545 335.386 130.648Z" fill="white"/>
<path d="M281.888 155.585C281.368 156.965 280.856 158.306 280.404 159.668C280.267 160.08 280.115 160.38 279.653 160.336C279.339 160.306 279.077 159.652 279.197 159.26C279.465 158.392 279.695 157.507 280.026 156.663C280.515 155.417 281.06 154.191 281.624 152.977C281.784 152.633 282.043 152.324 282.557 152.592C282.935 152.79 282.961 153.091 282.856 153.37C282.579 154.111 282.236 154.828 281.888 155.585Z" fill="white"/>
<path d="M296.506 126.717C296.247 126.935 296.044 127.196 295.782 127.288C295.555 127.369 295.141 127.354 295.027 127.209C294.89 127.035 294.862 126.557 294.997 126.425C295.659 125.777 296.378 125.184 297.105 124.607C297.334 124.425 297.646 124.266 297.926 124.255C298.175 124.245 298.654 124.471 298.646 124.564C298.623 124.869 298.502 125.249 298.28 125.44C297.741 125.904 297.123 126.277 296.506 126.717Z" fill="white"/>
<path d="M305.32 120.544C304.509 120.803 303.744 121.028 303.013 121.333C302.548 121.527 302.193 121.339 302.082 120.998C302.015 120.792 302.284 120.313 302.518 120.201C303.418 119.77 304.356 119.411 305.299 119.082C305.716 118.937 306.161 119.112 306.282 119.544C306.41 120.004 305.985 120.223 305.637 120.42C305.555 120.467 305.467 120.503 305.32 120.544Z" fill="white"/>
<path d="M312.353 159.823C314.285 161.724 315.496 164.009 316.316 166.513C316.406 166.787 316.361 167.258 316.179 167.44C315.601 168.018 314.88 168.354 314.034 168.464C312.168 168.705 310.42 168.203 308.679 167.684C307.209 167.245 305.714 166.95 304.197 167.129C303.204 167.246 302.254 167.681 301.266 167.885C300.105 168.124 298.93 168.318 297.751 168.436C296.893 168.522 296.005 168.548 295.157 168.421C294.522 168.326 293.905 167.991 293.326 167.678C292.742 167.362 292.826 166.824 293.121 166.35C293.914 165.078 294.622 163.729 295.577 162.589C296.64 161.322 297.854 160.142 299.16 159.128C300.499 158.088 302.081 157.458 303.791 157.132C306.374 156.64 308.68 157.257 310.835 158.633C311.363 158.969 311.828 159.403 312.353 159.823ZM309.681 159.731C308.149 158.81 306.495 158.462 304.714 158.618C303.126 158.757 301.707 159.342 300.389 160.188C298.946 161.114 297.733 162.313 296.689 163.659C296.045 164.489 295.534 165.425 294.986 166.327C294.765 166.69 294.8 166.981 295.333 166.979C296.057 166.976 296.781 166.965 297.504 166.981C298.868 167.011 300.147 166.609 301.441 166.259C302.476 165.979 303.514 165.642 304.571 165.53C306.187 165.358 307.756 165.756 309.305 166.224C310.682 166.64 312.074 167.02 313.537 166.979C314.448 166.953 314.703 166.58 314.366 165.766C313.367 163.355 311.99 161.237 309.681 159.731Z" fill="white"/>
<path d="M350.434 168.422C349.415 168.534 348.42 168.64 347.441 168.83C346.16 169.079 344.898 169.424 343.616 169.67C342.864 169.814 342.088 169.921 341.325 169.909C340.201 169.89 339.103 169.646 338.142 169.016C337.638 168.687 337.662 168.174 337.937 167.727C338.724 166.451 339.529 165.185 340.37 163.945C340.747 163.39 341.189 162.865 341.671 162.397C343.586 160.538 345.72 159.077 348.402 158.483C350.603 157.996 352.682 158.33 354.635 159.277C356.095 159.986 357.282 161.11 358.318 162.399C359.598 163.993 360.51 165.756 361.128 167.689C361.365 168.433 361.184 168.814 360.526 169.196C358.872 170.158 357.159 169.864 355.438 169.493C353.783 169.136 352.199 168.435 350.434 168.422ZM349.482 166.856C350.116 166.856 350.774 166.747 351.38 166.876C353.212 167.267 355.015 167.79 356.848 168.176C357.5 168.313 358.207 168.24 358.885 168.194C359.326 168.163 359.476 167.801 359.36 167.411C359.231 166.978 359.055 166.553 358.844 166.153C357.946 164.449 356.922 162.847 355.347 161.655C353.185 160.018 350.832 159.435 348.182 160.166C345.661 160.862 343.716 162.419 342.073 164.353C341.218 165.359 340.576 166.546 339.84 167.653C339.536 168.11 339.835 168.297 340.212 168.32C342.221 168.443 344.189 168.207 346.125 167.644C347.19 167.335 348.28 167.115 349.482 166.856Z" fill="white"/>
<path d="M374.358 133.197C374.194 131.934 374.027 130.733 373.867 129.531C373.74 128.579 373.644 127.623 373.493 126.675C373.201 124.837 372.863 123.006 372.138 121.279C371.95 120.832 371.962 120.38 372.357 120.209C372.717 120.053 373.246 120.059 373.426 120.653C373.811 121.926 374.268 123.18 374.587 124.469C374.907 125.761 375.109 127.084 375.334 128.398C375.45 129.075 375.499 129.763 375.587 130.445C375.747 131.688 375.919 132.929 376.075 134.173C376.133 134.645 376.174 135.121 376.197 135.596C376.248 136.602 376.299 137.609 376.32 138.616C376.371 141.158 376.429 143.7 376.437 146.243C376.443 147.884 376.397 149.527 376.313 151.166C376.237 152.653 376.092 154.138 375.942 155.619C375.913 155.907 375.775 156.227 375.586 156.443C375.433 156.618 375.045 156.805 374.905 156.727C374.664 156.593 374.393 156.263 374.384 156.006C374.354 155.186 374.43 154.361 374.483 153.54C374.556 152.406 374.695 151.274 374.717 150.14C374.784 146.656 374.856 143.172 374.83 139.688C374.815 137.793 374.606 135.9 374.477 134.006C374.46 133.755 374.399 133.507 374.358 133.197Z" fill="white"/>
<path d="M372.392 145.849C372.31 146.327 372.301 146.777 372.121 147.145C372.002 147.389 371.637 147.662 371.387 147.658C370.993 147.651 370.781 147.301 370.794 146.867C370.839 145.29 370.874 143.713 370.919 142.136C370.956 140.845 371.082 139.55 371.02 138.264C370.948 136.775 370.688 135.295 370.569 133.806C370.543 133.48 370.634 133.046 371.11 132.951C371.626 132.848 371.901 133.134 372.016 133.578C372.132 134.026 372.21 134.487 372.264 134.947C372.329 135.499 372.357 136.056 372.391 136.612C372.474 137.989 372.606 139.366 372.613 140.744C372.618 141.873 372.459 143.002 372.397 144.133C372.367 144.683 372.392 145.236 372.392 145.849Z" fill="white"/>
<path d="M367.632 139.37C367.638 139.844 367.304 139.901 366.996 139.948C366.651 140 366.384 139.86 366.379 139.481C366.363 138.396 366.336 137.308 366.405 136.227C366.419 136.022 366.86 135.687 367.089 135.699C367.311 135.71 367.684 136.084 367.695 136.312C367.743 137.318 367.683 138.33 367.632 139.37Z" fill="white"/>
<path d="M363.179 132.951C363.787 132.937 364.059 133.203 364.038 133.75C364.001 134.691 363.978 135.633 363.907 136.572C363.874 137.013 363.56 137.301 363.122 137.233C362.749 137.175 362.532 136.888 362.56 136.452C362.618 135.532 362.618 134.608 362.706 133.692C362.73 133.434 362.974 133.197 363.179 132.951Z" fill="white"/>
<path d="M367.356 129.757C367.356 130.329 367.358 130.839 367.355 131.349C367.352 131.721 367.393 132.128 366.878 132.212C366.32 132.303 366.055 131.971 366.014 131.489C365.939 130.591 365.913 129.688 365.892 128.786C365.888 128.653 365.995 128.494 366.094 128.387C366.426 128.025 367.102 128.172 367.224 128.647C367.311 128.986 367.315 129.345 367.356 129.757Z" fill="white"/>
<path d="M351.294 317.245C352.478 317.132 353.633 316.969 354.784 316.991C355.984 317.014 357.182 317.206 358.377 317.346C358.555 317.366 358.725 317.492 358.89 317.585C359.251 317.789 359.54 318.112 359.336 318.505C359.162 318.841 358.832 319.006 358.339 318.856C357.711 318.665 357.03 318.625 356.368 318.573C355.486 318.503 354.6 318.438 353.717 318.457C352.951 318.472 352.189 318.621 351.423 318.682C351.055 318.712 350.614 318.792 350.529 318.239C350.442 317.674 350.764 317.403 351.294 317.245Z" fill="white"/>
<path d="M346.073 317.368C345.947 317.637 345.841 317.947 345.624 318.101C345.016 318.53 344.358 318.89 343.726 319.288C343.362 319.517 343.011 319.446 342.821 319.119C342.702 318.914 342.682 318.515 342.806 318.33C343.374 317.484 344.231 317.048 345.213 316.848C345.625 316.765 345.903 316.942 346.073 317.368Z" fill="white"/>
<path d="M307.777 319.057C307.531 318.915 307.191 318.769 307.196 318.633C307.205 318.362 307.337 317.939 307.533 317.858C308.127 317.613 308.769 317.408 309.406 317.357C310.713 317.251 312.03 317.207 313.342 317.234C314.05 317.248 314.75 317.494 315.461 317.571C315.961 317.626 316.133 317.979 316.104 318.328C316.069 318.75 315.712 318.965 315.255 318.936C313.919 318.85 312.581 318.696 311.245 318.711C310.109 318.724 308.974 318.934 307.777 319.057Z" fill="white"/>
<path d="M322.672 317.552C323.051 317.922 323.44 318.231 323.725 318.617C323.831 318.759 323.778 319.185 323.643 319.299C323.465 319.449 323.081 319.54 322.88 319.449C322.206 319.145 321.553 318.78 320.937 318.372C320.667 318.194 320.291 317.949 320.55 317.478C320.824 316.98 321.204 316.866 321.881 317.136C322.144 317.241 322.388 317.392 322.672 317.552Z" fill="white"/>
<path d="M331.731 279.625C332.718 279.625 333.644 279.628 334.57 279.623C335.049 279.621 335.338 279.845 335.414 280.316C335.5 280.847 335.112 281.058 334.722 281.083C333.435 281.166 332.143 281.164 330.854 281.23C330.352 281.255 329.85 281.349 329.357 281.454C328.833 281.566 328.255 281.338 328.169 280.94C328.056 280.418 328.25 280.131 328.946 280.003C329.847 279.839 330.761 279.748 331.731 279.625Z" fill="white"/>
<path d="M380.039 270.688C380.679 270.293 381.244 270.314 381.519 270.769C381.799 271.231 381.81 271.667 381.287 272.143C380.949 272.45 380.584 272.47 380.25 272.178C379.913 271.882 379.562 271.558 379.883 271.032C379.941 270.937 379.967 270.824 380.039 270.688Z" fill="white"/>
<path d="M284.406 270.995C285.112 270.859 285.579 271.133 285.666 271.684C285.759 272.278 285.263 272.938 284.682 272.99C284.622 272.996 284.526 273.016 284.504 272.987C284.311 272.724 284.018 272.469 283.973 272.177C283.909 271.772 283.782 271.243 284.406 270.995Z" fill="white"/>
<path d="M330.994 221.766C331.152 221.465 331.272 221.183 331.476 220.994C331.854 220.647 332.296 220.711 332.598 221.097C332.822 221.384 332.733 222.112 332.446 222.341C331.91 222.769 331.13 222.493 330.994 221.766Z" fill="white"/>
<path d="M315.977 232.177C315.672 232.33 315.406 232.493 315.119 232.551C315.037 232.567 314.834 232.295 314.792 232.128C314.707 231.797 314.847 231.518 315.213 231.478C315.684 231.426 315.963 231.662 315.977 232.177Z" fill="white"/>
<path d="M313.182 231.471C312.978 231.271 312.773 231.087 312.717 230.865C312.689 230.755 312.909 230.515 313.065 230.448C313.191 230.395 313.427 230.468 313.55 230.565C313.839 230.794 313.694 231.191 313.182 231.471Z" fill="white"/>
<path d="M313.336 233.712C313.046 234.038 312.754 234.026 312.567 233.714C312.48 233.567 312.514 233.178 312.613 233.125C312.814 233.018 313.134 232.981 313.339 233.068C313.631 233.193 313.65 233.462 313.336 233.712Z" fill="white"/>
</g>
<defs>
<clipPath id="clip0">
<rect width="237" height="237" fill="white" transform="translate(207 107)"/>
</clipPath>
</defs>
</svg>
