<svg width="298" height="293" viewBox="0 0 298 293" fill="none" xmlns="http://www.w3.org/2000/svg">
<rect width="298" height="293" rx="146.5" fill="#131319"/>
<g clip-path="url(#clip0)">
<path d="M201.995 193.294C200.586 194.393 200.022 195.89 199.684 197.531C199.243 199.674 199.858 201.617 200.638 203.57C201.218 205.021 201.915 206.456 201.905 208.083C201.894 209.908 199.955 211.793 198.448 212.017C196.874 212.252 195.608 211.674 194.463 210.744C192.738 209.343 191.442 207.574 190.441 205.607C189.989 204.719 189.736 203.731 189.365 202.8C189.256 202.528 189.049 202.297 188.888 202.047C188.845 202.323 188.76 202.6 188.766 202.875C188.787 203.76 188.905 204.646 188.868 205.526C188.788 207.463 188.642 209.398 188.51 211.332C188.444 212.302 188.336 213.27 188.27 214.24C188.138 216.175 188.037 218.111 187.893 220.045C187.799 221.306 187.675 222.567 187.524 223.823C187.391 224.926 187.205 226.022 187.038 227.121C186.877 228.18 186.724 229.24 186.542 230.295C186.448 230.843 186.348 231.398 186.16 231.917C186.062 232.19 186.072 232.265 186.319 232.399C186.657 232.582 186.964 232.827 187.275 233.058C187.914 233.531 188.016 233.954 187.778 234.898C187.117 237.512 186.468 240.129 185.809 242.743C185.474 244.077 185.124 245.408 184.788 246.742C184.549 247.688 184.228 248.627 184.122 249.589C184.044 250.295 184.295 251.031 184.328 251.757C184.397 253.259 183.98 254.672 183.453 256.059C183.341 256.356 183.186 256.625 183.622 256.844C184.264 257.167 184.58 257.952 184.464 258.672C184.396 259.101 184.347 259.538 184.342 259.971C184.326 261.27 184.013 261.598 182.708 261.625C182.667 261.626 182.626 261.625 182.585 261.625C177.258 261.666 171.932 261.701 166.605 261.752C165.223 261.766 163.841 261.84 162.458 261.867C161.66 261.883 161.162 261.281 161.237 260.48C161.301 259.803 161.339 259.123 161.36 258.443C161.375 257.952 161.52 257.578 161.941 257.264C162.117 257.132 162.234 256.72 162.168 256.497C161.815 255.308 161.657 254.1 161.746 252.872C161.798 252.16 161.847 251.397 162.136 250.766C162.552 249.855 162.451 249.019 162.233 248.117C161.876 246.642 161.541 245.161 161.249 243.672C160.891 241.848 160.579 240.015 160.262 238.184C160.043 236.92 159.814 235.655 159.676 234.381C159.65 234.141 159.974 233.757 160.234 233.608C161.553 232.849 161.59 232.859 161.037 231.395C160.395 229.696 159.693 228.021 159.033 226.329C158.408 224.725 157.798 223.114 157.195 221.501C157.142 221.357 157.201 221.175 157.183 221.013C157.172 220.912 157.114 220.817 157.077 220.719C156.95 220.792 156.754 220.835 156.707 220.943C155.542 223.633 154.407 226.337 153.234 229.024C152.749 230.134 152.203 231.219 151.655 232.3C151.264 233.073 151.353 233.406 152.125 233.74C152.872 234.064 152.892 234.162 152.774 234.96C152.581 236.259 152.482 237.574 152.264 238.868C151.966 240.639 151.619 242.402 151.246 244.158C150.883 245.864 150.384 247.544 150.102 249.262C149.992 249.929 150.238 250.691 150.452 251.369C151.016 253.164 150.836 254.931 150.375 256.698C150.28 257.06 150.269 257.269 150.643 257.526C150.916 257.713 151.096 258.161 151.149 258.518C151.257 259.248 151.272 259.995 151.287 260.736C151.306 261.692 150.998 261.994 150.076 261.994C147.353 261.994 144.63 262.01 141.907 261.99C139.016 261.968 136.126 261.919 133.236 261.868C131.956 261.845 130.676 261.785 129.396 261.75C128.79 261.734 128.263 261.413 128.22 260.829C128.148 259.845 128.158 258.849 128.224 257.864C128.242 257.592 128.528 257.214 128.784 257.107C129.272 256.904 129.276 256.58 129.122 256.237C128.457 254.753 128.144 253.202 128.207 251.584C128.227 251.061 128.418 250.544 128.419 250.024C128.419 249.527 128.305 249.023 128.184 248.536C127.419 245.476 126.636 242.421 125.864 239.363C125.476 237.824 125.107 236.28 124.711 234.743C124.524 234.017 124.638 233.664 125.276 233.249C126.243 232.619 126.185 232.636 125.875 231.553C125.182 229.132 124.499 226.706 123.919 224.258C123.597 222.896 123.5 221.482 123.281 220.095C122.964 218.079 122.608 216.07 122.308 214.051C122.106 212.692 121.968 211.323 121.812 209.956C121.724 209.191 121.663 208.422 121.578 207.656C121.565 207.543 121.482 207.438 121.432 207.329C121.353 207.45 121.238 207.561 121.202 207.694C121.044 208.265 120.999 208.887 120.746 209.409C120.199 210.538 119.528 211.606 118.947 212.719C118.389 213.787 117.648 214.673 116.61 215.291C115.115 216.18 113.085 216.179 111.714 214.879C110.61 213.832 110.021 212.595 109.881 211.084C109.751 209.675 109.897 208.301 110.114 206.916C110.465 204.678 110.652 202.419 109.868 200.238C109.589 199.462 109.064 198.75 108.548 198.089C108.063 197.468 107.403 196.984 106.89 196.38C106.455 195.868 105.88 195.769 105.37 195.937C104.746 196.143 104.263 195.897 103.759 195.714C101.796 195.003 100.019 193.924 98.2688 192.809C96.1913 191.486 94.1088 190.167 92.0852 188.765C90.7791 187.86 89.5271 186.862 88.3375 185.807C86.9685 184.594 85.6362 183.328 84.395 181.986C82.8279 180.291 81.3025 178.549 79.8812 176.732C78.3259 174.743 76.7994 172.715 75.466 170.576C74.2547 168.632 73.2995 166.527 72.2715 164.473C71.7726 163.476 71.3454 162.441 70.924 161.408C70.6732 160.793 70.8711 160.267 71.4005 159.912C73.6122 158.431 75.8598 157 78.0263 155.456C80.1278 153.957 82.1614 152.362 84.1967 150.774C86.0916 149.294 87.9626 147.784 89.8189 146.257C91.0495 145.244 92.2711 144.215 93.4343 143.127C95.5698 141.129 97.7107 139.132 99.7484 137.036C100.942 135.809 101.952 134.402 103.022 133.058C104.195 131.584 105.395 130.127 106.486 128.594C107.874 126.646 109.239 124.674 110.47 122.627C111.314 121.221 111.924 119.672 112.61 118.174C112.686 118.009 112.654 117.698 112.542 117.561C111.637 116.453 110.656 115.405 109.786 114.271C108.713 112.87 107.664 111.442 106.719 109.952C105.916 108.687 105.191 107.357 104.584 105.988C103.779 104.174 103.132 102.291 102.388 100.449C102.29 100.207 102.056 99.9149 101.828 99.851C101.133 99.6567 100.756 99.1262 100.484 98.5757C99.648 96.8784 98.7908 95.1799 98.1279 93.4121C97.4087 91.4942 96.8621 89.508 96.3146 87.531C96.0772 86.6736 96.0462 85.761 95.8861 84.8798C95.4073 82.2433 95.4802 79.5794 95.5444 76.9248C95.5795 75.4745 95.8059 74.0233 96.0235 72.5842C96.3073 70.7069 96.5858 68.8218 97.0198 66.9761C97.4146 65.2971 97.9636 63.6484 98.5346 62.0179C99.6388 58.8653 101.1 55.8663 102.652 52.9148C104.063 50.2333 105.548 47.5883 107.397 45.1794C108.366 43.9168 109.462 42.7512 110.514 41.5535C111.033 40.9624 111.541 40.3512 112.125 39.8298C113.986 38.1707 115.871 36.5382 117.765 34.9163C120.15 32.8738 122.856 31.3043 125.68 30.0025C127.821 29.0158 130.117 28.3497 132.37 27.6261C134.003 27.102 135.669 26.664 137.342 26.2878C138.649 25.9939 139.984 25.772 141.319 25.6637C143.638 25.4755 145.966 25.4008 148.29 25.2767C149.791 25.1965 151.292 25.074 152.795 25.0412C154.684 25.0001 156.578 24.9698 158.465 25.0516C159.876 25.1127 161.284 25.3234 162.683 25.5332C163.943 25.7221 165.186 26.024 166.443 26.2305C167.259 26.3645 168.091 26.3985 168.911 26.5094C170.4 26.7107 171.886 26.9366 173.373 27.1508C174.166 27.2649 174.956 27.4162 175.753 27.4801C177.604 27.6284 179.458 27.7327 181.311 27.8574C181.848 27.8935 182.383 27.967 182.919 27.9739C184.236 27.9911 185.556 28.0282 186.871 27.9685C188.995 27.8719 191.014 27.3868 192.831 26.1982C193.462 25.7852 194.17 25.4868 194.854 25.1573C195.603 24.7965 196.404 25.2107 196.697 26.0332C197.173 27.3721 197.643 28.7137 198.092 30.0619C198.799 32.1858 199.537 34.3014 200.169 36.4477C200.806 38.6075 201.408 40.7838 201.878 42.9843C202.248 44.719 202.411 46.4995 202.635 48.2636C202.861 50.0392 203.058 51.8186 203.25 53.5983C203.353 54.5449 203.444 55.4941 203.493 56.4446C203.56 57.7367 203.59 59.0308 203.621 60.3244C203.669 62.3956 203.766 64.4682 203.727 66.5381C203.693 68.3315 203.516 70.1233 203.371 71.9132C203.281 73.0115 203.145 74.1067 203.005 75.2002C202.814 76.6936 202.625 78.1882 202.387 79.6744C202.132 81.2602 201.871 82.8481 201.521 84.4145C201.1 86.2975 200.598 88.1628 200.103 90.0287C199.377 92.7711 198.332 95.3924 196.98 97.8849C196.608 98.5703 196.258 99.2601 195.583 99.7798C195.203 100.073 195.09 100.739 194.906 101.254C193.943 103.938 192.887 106.576 191.343 108.992C190.579 110.188 189.824 111.391 189.095 112.608C188.981 112.798 188.967 113.098 189.015 113.324C189.367 114.98 190.365 116.339 191.18 117.765C192.163 119.483 193.269 121.139 194.429 122.744C195.615 124.385 196.914 125.945 198.199 127.511C198.911 128.379 199.697 129.187 200.45 130.021C201.999 131.735 203.562 133.435 205.093 135.164C206.373 136.61 207.633 138.075 208.872 139.556C210.61 141.634 212.31 143.745 214.048 145.823C215.111 147.092 216.214 148.328 217.302 149.575C219.008 151.53 220.685 153.514 222.439 155.426C223.465 156.544 224.623 157.54 225.709 158.604C226.095 158.982 226.285 159.383 226.13 160.002C225.902 160.908 225.943 161.88 225.718 162.787C225.101 165.267 224.433 167.735 223.735 170.194C222.801 173.489 221.402 176.606 219.812 179.621C218.245 182.591 216.593 185.533 214.474 188.155C213.089 189.869 211.565 191.475 210.048 193.077C209.471 193.686 208.787 194.23 208.066 194.657C207.036 195.267 205.988 194.859 205.02 194.396C204.35 194.075 203.73 193.643 203.108 193.231C202.72 192.975 202.375 192.869 201.995 193.294ZM153.749 175.452C153.708 175.325 153.638 175.201 153.63 175.073C153.541 173.531 153.456 171.989 153.382 170.446C153.331 169.378 153.296 168.31 153.258 167.242C153.174 164.881 153.02 162.519 153.029 160.158C153.042 156.794 153.172 153.429 153.261 150.065C153.271 149.693 153.264 149.292 153.394 148.955C153.807 147.883 153.572 146.909 153.02 145.987C152.135 144.507 151.284 142.999 150.291 141.594C149.147 139.977 147.929 138.402 146.62 136.916C145.68 135.849 144.61 134.861 143.466 134.016C142.401 133.23 141.221 132.518 139.984 132.07C138.57 131.557 137.034 131.382 135.556 131.042C132.508 130.342 129.614 129.203 126.806 127.853C125.419 127.186 124.054 126.455 122.753 125.635C121.021 124.542 119.332 123.376 117.682 122.162C116.566 121.34 115.557 120.373 114.483 119.491C114.22 119.275 113.948 119.255 113.817 119.692C113.736 119.961 113.578 120.206 113.457 120.463C112.308 122.901 111.088 125.303 109.467 127.468C107.729 129.788 105.973 132.095 104.165 134.359C102.814 136.051 101.4 137.697 99.9503 139.305C99.1106 140.237 98.1549 141.066 97.232 141.92C95.8596 143.19 94.4908 144.465 93.0823 145.694C91.5733 147.011 90.0488 148.313 88.4788 149.556C86.439 151.171 84.3421 152.714 82.2842 154.306C81.9567 154.559 81.5668 154.826 81.8791 155.389C82.9332 157.29 82.997 159.333 82.7573 161.439C82.5222 163.504 81.6675 165.324 80.6463 167.076C79.9764 168.225 79.1304 169.25 77.9466 169.929C77.3507 170.27 77.2927 170.455 77.7123 171.029C78.7478 172.444 79.7478 173.889 80.848 175.253C82.381 177.154 83.9495 179.03 85.5855 180.842C86.6451 182.015 87.7987 183.119 89.0064 184.141C90.6544 185.534 92.3478 186.884 94.107 188.133C95.8759 189.388 97.7494 190.496 99.577 191.669C99.9975 191.938 100.397 192.138 100.644 191.463C100.76 191.144 100.95 190.848 101.041 190.523C101.188 189.997 101.562 189.756 102.095 189.883C102.991 190.097 103.89 190.298 104.79 190.491C104.839 190.501 104.981 190.365 104.972 190.319C104.842 189.659 104.862 189.036 105.059 188.366C105.492 186.902 106.271 185.638 107.18 184.457C107.901 183.521 108.698 182.623 109.579 181.84C110.004 181.463 110.055 181.305 109.71 180.911C108.412 179.427 107.181 177.879 105.828 176.447C104.062 174.578 102.199 172.804 99.9939 171.431C99.5255 171.139 99.1487 170.657 99.3463 170.061C99.5594 169.418 99.828 168.768 100.207 168.212C101.085 166.925 102.007 165.664 102.981 164.448C104.111 163.037 105.23 161.599 106.506 160.326C109.264 157.576 112.099 154.902 114.945 152.242C115.921 151.33 116.993 150.51 118.076 149.725C119.006 149.051 119.999 148.456 120.999 147.888C121.435 147.64 121.952 147.505 122.45 147.405C122.619 147.371 122.952 147.557 123.011 147.716C123.094 147.94 123.073 148.284 122.948 148.484C122.788 148.738 122.508 148.963 122.229 149.086C121.89 149.235 121.784 149.437 121.807 149.777C121.856 150.496 121.901 151.216 121.931 151.937C122.018 154.073 122.103 156.209 122.176 158.345C122.228 159.883 122.28 161.422 122.296 162.961C122.317 164.934 122.315 166.906 122.298 168.878C122.268 172.382 122.225 175.887 122.174 179.391C122.161 180.316 122.072 181.24 122.061 182.165C122.041 183.782 122.035 185.4 122.07 187.016C122.078 187.401 122.148 187.946 122.401 188.132C122.937 188.529 123.589 188.814 124.234 189.013C127.251 189.943 130.268 190.872 133.31 191.712C135.122 192.212 136.971 192.586 138.818 192.945C140.383 193.248 141.965 193.486 143.547 193.683C145.234 193.893 146.93 194.043 148.625 194.177C149.69 194.261 150.761 194.253 151.828 194.311C153.322 194.393 153.32 194.403 153.506 192.917C153.522 192.787 153.612 192.665 153.622 192.537C153.751 190.725 153.912 188.915 153.979 187.101C154.02 186.008 153.905 184.91 153.873 183.814C153.826 182.194 153.779 180.573 153.752 178.952C153.734 177.827 153.749 176.7 153.749 175.452ZM196.068 157.21C196.213 157.395 196.362 157.578 196.502 157.768C197.853 159.603 199.243 161.411 200.538 163.285C201.507 164.687 202.374 166.161 203.24 167.63C203.464 168.011 203.537 168.48 203.177 168.903C202.615 169.564 202.033 170.216 201.544 170.93C200.424 172.566 199.341 174.229 198.277 175.902C198.062 176.241 197.791 176.752 197.902 177.053C198.475 178.618 199.328 180.047 200.478 181.263C202.226 183.11 204.087 184.831 206.194 186.276C206.584 186.544 207.023 186.893 206.937 187.493C206.868 187.973 206.76 188.447 206.704 188.928C206.688 189.064 206.792 189.214 206.841 189.357C206.954 189.31 207.084 189.283 207.178 189.21C207.599 188.886 208.021 188.56 208.423 188.213C209.416 187.355 210.522 187.096 211.812 187.405C212.2 187.498 212.856 187.465 213.05 187.221C215.061 184.686 216.672 181.888 218.192 179.042C218.976 177.575 219.669 176.053 220.316 174.519C220.985 172.934 221.558 171.307 222.139 169.686C222.189 169.546 222.037 169.249 221.892 169.137C221.356 168.725 220.698 168.443 220.241 167.964C218.101 165.72 217.187 162.946 217.033 159.912C216.984 158.949 217.113 157.964 217.275 157.008C217.451 155.973 217.688 154.935 218.039 153.949C218.232 153.408 218.179 153.07 217.824 152.669C216.395 151.056 214.961 149.445 213.57 147.798C212.039 145.987 210.573 144.12 209.042 142.309C207.445 140.421 205.805 138.57 204.183 136.703C203.098 135.453 202.027 134.191 200.922 132.958C199.593 131.474 198.23 130.02 196.889 128.546C196.257 127.85 195.603 127.169 195.033 126.425C194.184 125.316 193.431 124.134 192.582 123.024C190.79 120.684 189.365 118.125 188.025 115.513C187.494 114.478 187.558 114.743 186.868 115.439C185.221 117.099 183.627 118.814 181.955 120.449C180.24 122.125 178.289 123.509 176.272 124.803C173.815 126.378 171.265 127.767 168.548 128.845C168.162 128.998 167.748 129.177 167.458 129.459C166.56 130.332 165.732 131.278 164.845 132.164C162.815 134.188 160.914 136.315 159.377 138.746C158.075 140.807 156.641 142.818 156.011 145.209C155.522 147.07 155.154 148.973 154.882 150.879C154.697 152.172 154.734 153.502 154.74 154.816C154.75 157.092 154.808 159.368 154.856 161.644C154.887 163.08 154.925 164.517 154.98 165.953C155.05 167.803 155.14 169.652 155.223 171.502C155.304 173.29 155.393 175.078 155.466 176.866C155.518 178.138 155.602 179.412 155.581 180.684C155.531 183.681 155.403 186.676 155.356 189.672C155.334 191.088 155.312 192.495 154.991 193.883C154.964 194.002 155.106 194.259 155.215 194.29C155.532 194.381 155.875 194.439 156.203 194.422C157.378 194.362 158.551 194.264 159.725 194.186C161.001 194.101 162.281 194.059 163.553 193.93C165.192 193.764 166.83 193.57 168.456 193.312C169.748 193.108 171.026 192.813 172.301 192.515C173.471 192.242 174.646 191.966 175.788 191.594C178.057 190.853 180.345 190.143 182.548 189.234C184.243 188.535 185.882 187.653 187.268 186.398C187.566 186.128 187.812 185.872 187.792 185.38C187.712 183.433 187.704 181.484 187.651 179.536C187.579 176.949 187.507 174.362 187.402 171.776C187.304 169.349 187.175 166.923 187.034 164.498C186.936 162.807 186.823 161.116 186.662 159.431C186.494 157.669 186.289 155.911 186.048 154.158C185.844 152.678 185.556 151.209 185.323 149.732C185.203 148.975 184.946 148.399 184.19 147.988C183.375 147.546 183.632 146.8 184.109 146.611C184.442 146.478 184.959 146.53 185.285 146.703C187.052 147.638 188.578 148.869 189.899 150.396C191.51 152.258 193.247 154.01 194.917 155.82C195.304 156.24 195.644 156.704 196.068 157.21ZM104.489 100.027C104.677 100.747 104.81 101.489 105.065 102.185C105.843 104.313 106.909 106.299 108.034 108.266C109.912 111.549 112.239 114.477 114.887 117.144C116.215 118.481 117.717 119.65 119.179 120.847C121.213 122.513 123.413 123.946 125.755 125.133C127.56 126.048 129.404 126.9 131.282 127.65C132.917 128.303 134.602 128.865 136.307 129.299C138.046 129.742 139.831 130.015 141.607 130.296C143.004 130.516 144.414 130.681 145.824 130.783C146.883 130.86 147.952 130.794 149.017 130.799C151.123 130.809 153.23 130.832 155.313 130.432C157.059 130.096 158.816 129.813 160.554 129.439C163.873 128.724 167.037 127.538 170.08 126.053C171.533 125.344 172.91 124.478 174.318 123.679C177.005 122.154 179.402 120.235 181.665 118.153C182.8 117.109 183.837 115.957 184.883 114.822C185.513 114.139 186.141 113.439 186.657 112.67C187.771 111.014 188.9 109.356 189.86 107.61C190.899 105.721 191.877 103.778 192.658 101.772C193.593 99.37 194.334 96.8884 194.657 94.3077C194.849 92.7736 195.175 91.2472 195.241 89.7088C195.32 87.8681 195.222 86.0165 195.134 84.1728C195.078 83.0127 194.97 81.8459 194.763 80.7041C194.353 78.4312 193.524 76.2793 192.677 74.1403C192.589 73.9171 192.377 73.5987 192.031 73.9078C191.566 74.323 191.094 74.7322 190.657 75.1754C190.54 75.2944 190.471 75.5364 190.494 75.7068C190.678 77.0991 190.981 78.4819 191.071 79.8789C191.2 81.8902 190.986 83.8866 190.624 85.881C190.223 88.0958 189.562 90.2217 188.616 92.2389C187.177 95.3068 185.283 98.0823 182.624 100.24C181.453 101.19 180.227 102.111 178.91 102.835C176.009 104.429 172.896 105.287 169.546 104.866C168.362 104.717 167.172 104.502 166.027 104.172C164.442 103.715 163 102.914 161.681 101.924C160.275 100.869 159.054 99.6326 158.031 98.1859C156.976 96.6941 156.117 95.11 155.484 93.4034C154.728 91.3663 154.278 89.2538 154.131 87.09C154.052 85.9285 154.129 84.757 154.106 83.5905C154.102 83.3769 154.014 83.1016 153.864 82.965C153.143 82.3076 152.286 81.9624 151.299 81.8999C150.097 81.8238 148.977 82.1741 147.891 82.5794C147.248 82.8193 146.481 83.0687 146.374 83.9766C146.271 84.8492 146.206 85.7359 145.996 86.5849C145.208 89.7823 144.025 92.8176 142.137 95.5479C140.545 97.8514 138.67 99.8692 136.349 101.463C133.658 103.31 130.714 104.474 127.455 104.743C125.963 104.866 124.469 104.72 123.003 104.387C120.234 103.757 117.828 102.445 115.773 100.495C114.436 99.2278 113.316 97.8014 112.407 96.182C111.525 94.6101 110.824 92.979 110.4 91.24C110.117 90.0749 109.941 88.8795 109.782 87.689C109.648 86.6858 109.571 85.6713 109.538 84.6596C109.515 83.9417 109.575 83.2164 109.656 82.5009C109.758 81.6114 109.847 80.7102 110.07 79.8471C110.478 78.2642 110.985 76.7068 111.435 75.1346C111.47 75.0124 111.441 74.8038 111.357 74.7259C110.593 74.0169 109.821 73.3166 109.028 72.6408C108.819 72.4629 108.588 72.3083 108.383 72.771C107.65 74.4334 106.766 76.0343 106.113 77.726C105.533 79.2295 105.126 80.8083 104.752 82.3802C104.422 83.7732 104.172 85.1945 104.017 86.6174C103.85 88.1505 103.789 89.6994 103.765 91.2427C103.743 92.6373 103.771 94.039 103.892 95.4277C104.021 96.9257 104.284 98.4122 104.489 100.027ZM122.547 198.792C122.588 200.146 122.629 201.501 122.669 202.855C122.671 202.896 122.665 202.938 122.67 202.978C122.874 204.736 123.083 206.493 123.282 208.251C123.413 209.407 123.499 210.569 123.659 211.721C123.92 213.591 124.219 215.457 124.517 217.322C124.58 217.717 124.587 218.219 124.829 218.467C125.281 218.928 125.84 219.358 126.436 219.591C128.093 220.237 129.816 220.087 131.51 219.712C131.793 219.65 132.134 219.318 132.231 219.036C133.099 216.528 133.967 214.026 134.367 211.375C134.635 209.594 134.833 207.84 134.606 206.045C134.574 205.795 134.754 205.37 134.956 205.271C135.327 205.089 135.65 205.375 135.803 205.73C135.9 205.956 135.94 206.226 135.929 206.473C135.862 207.996 135.833 209.524 135.672 211.037C135.542 212.265 135.317 213.494 135.004 214.688C134.605 216.211 134.083 217.701 133.6 219.201C133.318 220.076 132.909 220.876 131.916 221.103C131.345 221.234 130.751 221.31 130.166 221.32C129.447 221.333 128.719 221.303 128.009 221.196C127.253 221.083 126.513 220.862 125.768 220.683C125.596 220.641 125.43 220.577 125.261 220.523C125.216 220.729 125.103 220.947 125.137 221.14C125.447 222.912 125.682 224.704 126.138 226.439C126.574 228.101 127.249 229.701 127.81 231.33C127.918 231.642 128.033 231.679 128.368 231.562C130.497 230.815 132.696 230.284 134.933 230.085C137.317 229.874 139.733 229.989 142.08 230.455C144.454 230.927 146.785 231.624 149.116 232.288C149.629 232.434 149.856 232.382 150.069 231.914C151.039 229.777 152.045 227.655 153.006 225.514C153.61 224.169 154.157 222.798 154.732 221.439C155.255 220.202 155.793 218.972 156.3 217.728C156.471 217.31 156.816 217.195 157.144 217.305C157.404 217.392 157.651 217.677 157.785 217.935C157.939 218.232 157.93 218.609 158.048 218.93C158.776 220.921 159.506 222.911 160.263 224.891C161.148 227.205 162.054 229.512 162.974 231.813C163.053 232.013 163.205 232.179 163.572 232.043C164.621 231.652 165.698 231.326 166.782 231.045C169.534 230.334 172.339 229.916 175.177 229.83C176.47 229.791 177.793 229.85 179.061 230.085C180.766 230.401 182.43 230.93 184.113 231.366C184.403 231.441 184.665 231.48 184.71 231.048C184.758 230.583 184.842 230.122 184.916 229.661C185.048 228.836 185.197 228.013 185.315 227.187C185.416 226.486 185.472 225.78 185.569 225.079C185.722 223.978 185.926 222.884 186.047 221.78C186.17 220.652 186.197 219.513 186.313 218.383C186.359 217.937 186.215 217.941 185.91 218.104C185.54 218.301 185.179 218.513 184.809 218.709C183.26 219.529 181.647 220.127 179.86 220.105C178.739 220.091 177.651 219.358 177.338 218.373C177.072 217.54 176.874 216.684 176.582 215.86C175.646 213.218 175.482 210.464 175.38 207.703C175.348 206.822 175.404 205.93 175.522 205.056C175.555 204.806 175.917 204.477 176.185 204.41C176.638 204.295 176.709 204.727 176.711 205.062C176.713 205.393 176.598 205.725 176.604 206.055C176.629 207.41 176.656 208.766 176.73 210.119C176.768 210.82 176.858 211.527 177.01 212.212C177.29 213.481 177.618 214.741 177.955 215.996C178.107 216.562 178.298 217.122 178.525 217.663C179.006 218.81 179.902 219.093 181.37 218.723C182.927 218.331 184.296 217.558 185.647 216.745C185.959 216.558 186.325 216.234 186.394 215.914C186.569 215.109 186.601 214.27 186.667 213.443C186.761 212.27 186.843 211.096 186.914 209.921C187.005 208.421 187.087 206.919 187.159 205.417C187.213 204.309 187.247 203.199 187.284 202.09C187.328 200.736 187.349 199.38 187.413 198.027C187.466 196.891 187.568 195.758 187.639 194.624C187.644 194.542 187.587 194.402 187.528 194.382C187.416 194.344 187.254 194.328 187.16 194.383C186.697 194.655 186.247 194.951 185.796 195.244C183.525 196.723 181.067 197.848 178.559 198.826C176.265 199.72 173.896 200.432 171.532 201.132C170.063 201.567 168.554 201.886 167.044 202.153C165.672 202.396 164.278 202.526 162.889 202.654C160.83 202.844 158.77 203.033 156.705 203.135C155.56 203.192 154.406 203.079 153.257 203.028C151.612 202.954 149.964 202.902 148.323 202.773C146.913 202.662 145.506 202.486 144.105 202.285C142.316 202.029 140.534 201.72 138.749 201.432C136.19 201.02 133.695 200.356 131.218 199.598C128.287 198.701 125.408 197.699 122.806 196.032C122.708 195.969 122.478 195.922 122.461 195.953C122.379 196.098 122.304 196.274 122.309 196.437C122.328 196.973 122.376 197.509 122.427 198.044C122.447 198.254 122.506 198.461 122.547 198.792ZM109.403 45.7302C109.403 45.771 109.42 45.8269 109.4 45.8505C107.448 48.1368 106.049 50.7769 104.622 53.3933C103.76 54.9738 102.955 56.589 102.208 58.2269C101.518 59.74 100.849 61.2747 100.335 62.8532C99.6684 64.8987 99.1167 66.9854 98.6071 69.0766C98.2729 70.4479 98.0805 71.8554 97.8631 73.2527C97.7388 74.0516 97.672 74.861 97.6141 75.6681C97.5163 77.0322 97.3941 78.3977 97.3816 79.7635C97.3728 80.7319 97.519 81.7026 97.612 82.6708C97.7253 83.8491 97.758 85.0464 98.0012 86.1985C98.3633 87.914 98.7824 89.6304 99.3539 91.2854C100.075 93.3748 100.971 95.4044 101.806 97.4538C101.857 97.5803 102.036 97.6551 102.155 97.7539C102.158 97.6141 102.179 97.4724 102.163 97.3348C102.041 96.2811 101.86 95.2311 101.803 94.1742C101.759 93.3563 101.875 92.5306 101.908 91.7078C101.955 90.4967 101.959 89.2831 102.041 88.0744C102.123 86.8533 102.197 85.6223 102.419 84.4222C102.757 82.5928 103.162 80.7709 103.642 78.9737C104.411 76.0966 105.797 73.4809 107.175 70.8563C108.64 68.0656 110.572 65.6394 112.756 63.4133C114.35 61.7882 116.032 60.2388 117.771 58.7698C119.36 57.4281 121.117 56.3071 122.98 55.3542C124.706 54.4719 126.429 53.5961 128.316 53.1108C129.762 52.7387 131.208 52.354 132.674 52.0739C133.773 51.8637 134.901 51.7948 136.019 51.6917C137.935 51.5149 139.852 51.3056 141.773 51.2091C144.984 51.0477 148.184 51.3563 151.384 51.5693C152.212 51.6244 153.041 51.6978 153.861 51.8177C155.38 52.0397 156.89 52.3275 158.41 52.5398C159.582 52.7035 160.762 52.8254 161.942 52.9088C163.543 53.0218 165.148 53.115 166.753 53.1535C168.807 53.2027 170.846 53.0336 172.877 52.6833C174.735 52.3628 176.499 51.7711 178.199 50.9951C180.71 49.8494 182.768 48.0572 184.729 46.1686C185.778 45.1581 186.7 44.0123 187.649 42.9019C189.362 40.8972 190.695 38.6355 191.942 36.328C192.944 34.4742 193.819 32.5577 194.288 30.4835C194.483 29.6242 194.705 28.7712 194.893 27.9107C194.93 27.7445 194.869 27.557 194.853 27.3793C194.699 27.4424 194.536 27.4903 194.392 27.5711C193.793 27.9066 193.215 28.2835 192.601 28.5878C190.789 29.4861 188.836 29.8719 186.838 29.9262C185.055 29.9747 183.267 29.8965 181.485 29.8123C179.875 29.7363 178.265 29.6167 176.664 29.4431C174.816 29.2428 172.977 28.9562 171.133 28.7184C169.479 28.5051 167.82 28.3256 166.168 28.0971C164.567 27.8757 162.977 27.5729 161.374 27.3757C159.666 27.1658 157.95 26.9281 156.235 26.9017C154.08 26.8685 151.922 27.04 149.766 27.1188C148.514 27.1645 147.26 27.1851 146.009 27.2472C144.793 27.3075 143.571 27.3462 142.366 27.5023C140.574 27.7344 138.765 27.9455 137.015 28.3755C134.449 29.0061 131.907 29.7577 129.394 30.5794C127.339 31.2515 125.393 32.2169 123.535 33.3292C121.636 34.4663 119.755 35.6287 118.104 37.1339C116.813 38.3105 115.363 39.3197 114.131 40.551C112.5 42.1815 111.013 43.9561 109.403 45.7302ZM120.643 68.149C123.987 68.149 127.331 68.1609 130.675 68.1434C132.111 68.1358 133.548 68.0416 134.985 68.0349C135.978 68.0302 136.971 68.1419 137.964 68.14C139.094 68.1378 140.236 68.1555 141.35 68.0023C142.568 67.8347 143.182 68.5377 143.662 69.4042C144.658 71.2025 145.493 73.0751 145.891 75.1133C145.938 75.3532 146.043 75.5817 146.121 75.8155C146.327 75.7168 146.532 75.6181 146.737 75.5195C146.822 75.4785 146.908 75.4384 146.993 75.3965C148.558 74.6251 150.183 74.2325 151.941 74.5312C153.179 74.7414 154.343 75.1187 155.255 76.0069C155.61 76.3527 155.661 76.1373 155.79 75.8753C156.541 74.3436 157.289 72.8105 158.048 71.2832C159.069 69.2315 160.66 68.2304 163.023 68.2499C170.311 68.31 177.6 68.2524 184.888 68.2914C186.067 68.2977 187.132 68.154 188.138 67.507C188.524 67.2585 188.559 67.0877 188.299 66.7666C187.443 65.7093 186.64 64.6033 185.725 63.6008C184.119 61.8428 182.275 60.3467 180.357 58.9365C178.945 57.8988 177.433 57.0529 175.82 56.3894C174.701 55.9286 173.561 55.5089 172.407 55.1436C171.856 54.9692 171.25 54.8876 170.672 54.8991C169.701 54.9184 168.732 55.1178 167.764 55.11C166.466 55.0995 165.17 54.9674 163.873 54.881C162.719 54.804 161.563 54.7444 160.413 54.6295C159.065 54.4949 157.722 54.3147 156.378 54.1434C154.824 53.9453 153.276 53.6902 151.718 53.5425C149.89 53.3693 148.054 53.1923 146.221 53.1849C143.757 53.1751 141.291 53.2866 138.83 53.4215C137.133 53.5145 135.444 53.7385 133.75 53.8984C131.92 54.0714 130.125 54.4595 128.42 55.1187C126.605 55.8206 124.799 56.5877 123.089 57.5111C120.769 58.7636 118.662 60.364 116.721 62.1477C115.421 63.3431 114.246 64.6752 113.019 65.9501C112.942 66.0304 112.864 66.1407 112.851 66.2451C112.834 66.3829 112.827 66.5972 112.908 66.6601C113.476 67.1007 114.072 67.5035 114.649 67.9327C115.181 68.3282 115.658 68.7345 116.409 68.2968C116.735 68.1067 117.22 68.1621 117.633 68.1545C118.595 68.137 119.558 68.149 120.643 68.149ZM126.171 69.7459C124.611 69.7868 123.051 69.8362 121.491 69.862C121.161 69.8675 120.828 69.7468 120.498 69.7536C119.587 69.7723 118.636 70.0105 117.774 69.8233C116.653 69.5799 116.199 70.1118 115.652 70.8912C114.093 73.113 112.933 75.5082 112.148 78.1052C111.523 80.175 111.259 82.2945 111.135 84.4361C111.095 85.131 111.229 85.8341 111.24 86.5342C111.268 88.2238 111.606 89.8586 112.111 91.4582C113.033 94.3818 114.496 96.9965 116.738 99.1176C118.01 100.32 119.431 101.345 121.102 101.915C122.291 102.321 123.511 102.731 124.748 102.873C126 103.016 127.293 102.882 128.561 102.777C130.079 102.652 131.503 102.138 132.875 101.49C135.597 100.202 137.836 98.323 139.735 95.9961C141.477 93.862 142.711 91.4593 143.671 88.9021C144.458 86.8076 144.872 84.6129 144.992 82.3984C145.085 80.6811 145.003 78.9256 144.746 77.2254C144.41 75.003 143.665 72.8841 142.597 70.8742C142.168 70.067 141.647 69.74 140.788 69.7416C135.957 69.7506 131.125 69.7459 126.171 69.7459ZM155.714 86.5139C155.755 86.9885 155.755 87.471 155.845 87.9361C156.1 89.2584 156.314 90.5963 156.687 91.8866C157.315 94.0593 158.386 96.0155 159.834 97.7686C161.12 99.3254 162.583 100.651 164.389 101.58C165.829 102.32 167.331 102.823 168.943 103.05C170.629 103.288 172.311 103.236 173.946 102.886C176.137 102.417 178.207 101.531 179.988 100.159C181.368 99.0962 182.709 97.9365 183.864 96.6395C185.516 94.785 186.723 92.619 187.681 90.311C188.704 87.8479 189.272 85.2794 189.468 82.6467C189.607 80.7763 189.512 78.8943 189.146 77.0249C188.698 74.7378 187.947 72.5789 186.771 70.5772C186.604 70.2927 186.141 70.017 185.814 70.0158C177.666 69.9849 169.519 69.9895 161.371 70.0023C161.14 70.0027 160.828 70.0958 160.694 70.2601C160.268 70.7837 159.878 71.3437 159.528 71.9215C158.352 73.8578 157.332 75.8792 156.717 78.062C156.322 79.4684 156.107 80.9275 155.844 82.3688C155.721 83.0438 155.627 83.7312 155.605 84.4157C155.584 85.0723 155.673 85.7324 155.714 86.5139ZM178.501 55.4962C179.164 55.8722 179.854 56.2076 180.485 56.6314C183.013 58.3309 185.462 60.1318 187.446 62.4793C188.225 63.4002 189.018 64.312 189.742 65.2755C191.356 67.4256 192.773 69.6933 193.934 72.1314C195.157 74.6999 196.217 77.3005 196.764 80.1133C197.196 82.3363 197.611 84.5492 197.604 86.822C197.6 88.1523 197.598 89.4827 197.611 90.8129C197.612 90.9532 197.719 91.0926 197.777 91.2324C197.842 91.1029 197.934 90.98 197.968 90.8428C198.221 89.8209 198.474 88.7985 198.707 87.7717C199.127 85.9181 199.571 84.0687 199.935 82.2039C200.307 80.301 200.628 78.3866 200.909 76.4681C201.126 74.9883 201.268 73.4963 201.406 72.0063C201.554 70.4017 201.741 68.794 201.761 67.1859C201.792 64.6249 201.733 62.0613 201.646 59.501C201.578 57.483 201.43 55.4668 201.281 53.4525C201.2 52.3542 201.051 51.2605 200.918 50.1665C200.721 48.5517 200.549 46.9324 200.294 45.3264C200.083 43.996 199.799 42.6749 199.49 41.3629C199.185 40.0639 198.818 38.7789 198.461 37.4925C197.845 35.2723 197.218 33.0552 196.585 30.8395C196.555 30.7324 196.43 30.6521 196.349 30.5592C196.276 30.6651 196.151 30.7644 196.137 30.8777C195.919 32.6079 195.184 34.1673 194.452 35.7068C193.767 37.148 192.926 38.5167 192.125 39.9011C190.85 42.1061 189.331 44.1413 187.603 46.0048C186.032 47.6996 184.383 49.3308 182.472 50.6525C181.383 51.4052 180.291 52.1822 179.107 52.7566C178.042 53.2734 176.848 53.5224 175.717 53.9076C175.585 53.9525 175.493 54.1128 175.382 54.2196C175.461 54.2766 175.532 54.3544 175.619 54.3874C176.558 54.7406 177.499 55.0867 178.501 55.4962ZM120.581 193.141C120.54 192.543 120.466 191.946 120.464 191.349C120.452 188.312 120.443 185.274 120.464 182.237C120.478 180.084 120.536 177.931 120.583 175.778C120.617 174.198 120.7 172.618 120.695 171.038C120.689 168.803 120.624 166.568 120.581 164.332C120.543 162.404 120.496 160.476 120.459 158.548C120.415 156.191 120.376 153.832 120.336 151.475C120.333 151.27 120.354 151.063 120.33 150.861C120.309 150.694 120.238 150.532 120.189 150.368C120.02 150.43 119.817 150.45 119.688 150.559C117.184 152.679 114.633 154.747 112.212 156.958C110.394 158.618 108.705 160.426 107.037 162.24C105.53 163.879 104.093 165.586 102.698 167.322C102.092 168.076 101.68 168.985 101.155 169.807C100.977 170.086 101.064 170.176 101.297 170.364C102.624 171.431 103.982 172.47 105.221 173.634C106.688 175.013 108.086 176.471 109.434 177.967C110.432 179.075 111.318 180.286 112.222 181.475C112.832 182.277 113.325 183.174 113.985 183.928C114.494 184.509 114.539 185.086 114.342 185.736C114.062 186.663 114.145 186.833 114.979 187.436C116.485 188.526 117.817 189.8 118.744 191.436C119.305 192.427 119.804 193.453 120.341 194.458C120.39 194.55 120.509 194.604 120.596 194.676C120.632 194.578 120.704 194.476 120.698 194.38C120.672 194.007 120.622 193.636 120.581 193.141ZM189.373 185.525C189.373 186.303 189.387 187.081 189.367 187.858C189.356 188.312 189.283 188.765 189.256 189.22C189.25 189.316 189.321 189.418 189.356 189.517C189.436 189.463 189.547 189.426 189.589 189.351C189.662 189.221 189.679 189.061 189.744 188.925C190.11 188.156 190.43 187.358 190.866 186.63C191.628 185.36 192.67 184.336 193.868 183.462C194.038 183.338 194.113 183.031 194.153 182.795C194.207 182.472 194.123 182.12 194.206 181.81C194.749 179.771 195.489 177.817 196.473 175.934C197.774 173.443 199.245 171.085 201.04 168.922C201.357 168.541 201.836 168.18 201.341 167.487C200.055 165.684 198.866 163.811 197.633 161.97C195.965 159.479 193.953 157.269 191.946 155.056C191.349 154.398 190.729 153.761 190.126 153.108C189.196 152.103 188.275 151.091 187.342 150.09C187.283 150.028 187.119 149.987 187.059 150.025C186.991 150.067 186.946 150.217 186.961 150.307C187.35 152.559 187.791 154.802 188.13 157.061C188.369 158.66 188.496 160.277 188.629 161.89C188.78 163.719 188.896 165.552 189 167.384C189.101 169.171 189.185 170.958 189.245 172.746C189.307 174.57 189.352 176.395 189.368 178.22C189.388 180.614 189.373 183.008 189.373 185.525ZM163.33 253.334C163.271 254.406 163.479 255.437 163.823 256.444C163.959 256.842 164.153 257.13 164.667 257.088C165.981 256.982 167.298 256.884 168.616 256.844C169.944 256.803 171.276 256.848 172.605 256.832C175.289 256.8 177.974 256.77 180.657 256.689C180.978 256.68 181.403 256.44 181.586 256.173C182.304 255.127 182.731 253.945 182.725 252.666C182.721 251.82 182.626 250.966 182.484 250.13C182.096 247.834 180.832 246.123 178.863 244.912C176.578 243.506 174.086 243.195 171.549 243.843C168.888 244.522 166.675 245.987 165.06 248.279C164.013 249.765 163.367 251.377 163.33 253.334ZM145.027 245.963C143.034 244.541 140.873 243.729 138.366 243.787C136.344 243.835 134.6 244.428 132.961 245.596C130.529 247.328 129.902 249.886 129.723 252.586C129.659 253.563 130.116 254.604 130.466 255.569C130.695 256.2 131.135 256.857 131.878 256.933C132.836 257.032 133.813 256.943 134.781 256.961C136.279 256.989 137.776 257.059 139.274 257.075C141.135 257.096 142.998 257.066 144.86 257.086C145.928 257.097 146.995 257.162 148.063 257.203C148.336 257.213 148.483 257.18 148.612 256.832C149.141 255.406 149.321 253.978 149.101 252.461C148.943 251.377 148.678 250.355 148.093 249.436C147.271 248.145 146.349 246.934 145.027 245.963ZM112.289 190.131C111.121 191.749 109.951 193.359 108.399 194.653C107.792 195.158 107.85 195.306 108.461 195.768C109.816 196.792 110.777 198.119 111.364 199.707C111.959 201.316 112.089 202.994 111.975 204.689C111.891 205.929 111.78 207.171 111.602 208.401C111.415 209.691 111.397 210.949 111.858 212.189C112.661 214.348 114.798 214.945 116.363 213.293C117.077 212.541 117.628 211.625 118.197 210.747C119.533 208.687 120.051 206.351 120.316 203.961C120.433 202.903 120.409 201.815 120.316 200.752C120.215 199.616 120.009 198.481 119.756 197.367C119.369 195.663 118.532 194.133 117.613 192.677C116.612 191.09 115.376 189.674 113.752 188.667C113.604 188.575 113.226 188.585 113.152 188.689C112.844 189.12 112.611 189.605 112.289 190.131ZM191.707 188.227C191.502 188.695 191.278 189.156 191.096 189.633C190.333 191.629 189.817 193.683 189.75 195.828C189.732 196.423 189.796 197.026 189.871 197.619C189.99 198.565 190.067 199.53 190.316 200.445C190.613 201.537 191.058 202.591 191.464 203.651C192.444 206.208 193.99 208.345 196.232 209.945C197.135 210.589 198.228 210.58 199.145 209.89C199.979 209.261 200.438 208.27 200.081 207.173C199.687 205.967 199.283 204.761 198.818 203.582C198.259 202.165 197.865 200.709 197.871 199.193C197.876 198.199 197.975 197.172 198.245 196.22C198.689 194.655 199.373 193.185 200.759 192.166C200.867 192.087 200.878 191.716 200.789 191.566C200.652 191.335 200.381 191.188 200.183 190.99C199.238 190.043 198.237 189.144 197.376 188.127C196.576 187.184 195.934 186.109 195.209 185.103C195.015 184.834 194.789 184.731 194.447 184.981C193.292 185.828 192.495 186.964 191.707 188.227ZM183.722 236.504C184.272 235.873 184.837 235.254 185.366 234.606C185.793 234.083 185.737 233.937 185.145 233.625C183.669 232.846 182.103 232.319 180.468 232.031C179.007 231.775 177.531 231.452 176.06 231.447C174.247 231.441 172.42 231.651 170.622 231.922C168.917 232.179 167.22 232.558 165.56 233.028C164.275 233.392 163.049 233.97 161.808 234.481C161.626 234.556 161.389 234.789 161.386 234.952C161.376 235.63 161.396 236.318 161.511 236.984C161.56 237.265 161.778 237.523 162.22 237.572C163.255 237.686 164.311 237.817 165.294 238.139C166.238 238.448 167.093 239.023 168.005 239.441C168.231 239.545 168.595 239.607 168.783 239.497C171.503 237.91 174.532 237.641 177.564 237.442C179.017 237.347 180.484 237.371 181.94 237.447C182.744 237.489 183.293 237.263 183.722 236.504ZM127.215 233.925C126.936 234.15 126.747 234.354 127.085 234.72C127.913 235.614 128.688 236.557 129.53 237.438C129.699 237.614 130.064 237.633 130.345 237.66C130.548 237.679 130.76 237.558 130.968 237.553C133.532 237.498 136.079 237.618 138.622 238.018C140.323 238.286 141.955 238.713 143.457 239.534C143.993 239.827 144.424 239.782 144.85 239.494C146.476 238.39 148.271 237.855 150.222 237.792C150.595 237.78 150.919 237.694 150.95 237.22C150.964 237.011 151.048 236.807 151.072 236.598C151.23 235.207 151.674 235.043 150.1 234.331C149.738 234.168 149.382 233.976 149.003 233.87C147.167 233.36 145.338 232.81 143.479 232.401C141.924 232.06 140.338 231.8 138.752 231.681C137.409 231.581 136.04 231.658 134.697 231.797C133.453 231.926 132.232 232.261 130.996 232.471C129.663 232.698 128.481 233.306 127.215 233.925ZM167.2 195.291C165.88 195.413 164.559 195.523 163.243 195.677C163.093 195.695 162.878 195.947 162.854 196.115C162.624 197.663 162.421 199.215 162.242 200.77C162.229 200.881 162.474 201.143 162.569 201.129C163.95 200.923 165.335 200.728 166.699 200.439C168.892 199.975 171.1 199.543 173.249 198.916C176.631 197.929 179.895 196.606 183.052 195.033C183.531 194.794 184.234 194.614 183.603 193.838C183.573 193.801 183.602 193.718 183.599 193.657C183.559 192.856 183.504 192.055 183.482 191.253C183.469 190.798 183.372 190.633 182.879 190.858C181.985 191.264 181.073 191.635 180.149 191.969C175.961 193.479 171.648 194.501 167.2 195.291ZM127.706 194.492C127.706 194.861 127.659 195.237 127.718 195.595C127.796 196.074 127.728 196.659 128.337 196.885C128.816 197.063 129.301 197.228 129.791 197.377C131.7 197.956 133.602 198.564 135.528 199.085C136.715 199.406 137.936 199.611 139.149 199.83C140.221 200.023 141.304 200.16 142.382 200.328C143.669 200.529 144.953 200.747 146.243 200.922C146.351 200.936 146.605 200.677 146.607 200.541C146.634 199.081 146.633 197.621 146.611 196.161C146.609 195.993 146.455 195.697 146.34 195.68C145.52 195.559 144.691 195.496 143.866 195.413C143.061 195.332 142.246 195.301 141.453 195.157C139.842 194.865 138.232 194.558 136.642 194.175C134.08 193.558 131.534 192.876 128.982 192.218C128.501 192.094 128.165 192.163 128.068 192.74C127.976 193.288 127.829 193.827 127.706 194.492ZM183.231 246.577C183.354 245.994 183.451 245.403 183.604 244.827C184.281 242.264 184.975 239.706 185.656 237.144C185.683 237.043 185.639 236.923 185.628 236.813C185.517 236.841 185.39 236.844 185.3 236.904C185.206 236.965 185.151 237.084 185.073 237.173C184.598 237.714 184.15 238.283 183.631 238.777C183.424 238.974 183.001 239.161 182.773 239.081C181.61 238.672 180.454 238.744 179.266 238.889C177.288 239.132 175.296 239.263 173.322 239.531C172.172 239.688 171.078 240.087 170.058 240.687C169.526 241.001 168.95 241.415 168.278 241.187C167.762 241.013 167.278 240.731 166.801 240.46C165.443 239.688 164.018 239.162 162.432 239.139C162.028 239.133 161.933 239.325 161.981 239.659C162.054 240.159 162.12 240.661 162.229 241.154C162.67 243.159 163.125 245.162 163.579 247.164C163.597 247.24 163.664 247.305 163.708 247.376C163.787 247.32 163.876 247.274 163.943 247.206C164.949 246.199 165.856 245.062 166.978 244.206C168.995 242.669 171.357 241.948 173.902 241.988C174.856 242.003 175.812 242.185 176.757 242.346C178.437 242.632 179.892 243.409 181.099 244.592C181.716 245.196 182.215 245.922 182.758 246.601C182.928 246.813 183.051 246.854 183.231 246.577ZM150.063 242.155C150.208 241.437 150.355 240.719 150.496 240.001C150.537 239.793 150.564 239.582 150.597 239.372C150.334 239.361 150.072 239.343 149.809 239.341C149.694 239.341 149.579 239.382 149.463 239.39C148.132 239.482 146.913 239.924 145.809 240.648C144.729 241.357 143.677 241.707 142.489 240.877C142.092 240.599 141.611 240.432 141.153 240.255C139.306 239.544 137.346 239.37 135.407 239.169C133.881 239.011 132.332 239.061 130.793 239.026C130.661 239.023 130.512 239.043 130.397 239.103C129.696 239.464 129.099 239.273 128.6 238.739C128.182 238.291 127.819 237.793 127.418 237.329C127.319 237.215 127.169 237.147 127.042 237.057C127.018 237.229 126.937 237.416 126.979 237.57C127.149 238.192 127.39 238.796 127.545 239.421C128.143 241.837 128.717 244.259 129.308 246.676C129.337 246.796 129.442 246.897 129.511 247.007C129.606 246.902 129.715 246.806 129.79 246.689C129.882 246.546 129.919 246.366 130.021 246.234C131.144 244.778 132.552 243.695 134.249 242.979C136.403 242.07 138.651 241.937 140.898 242.37C142.381 242.655 143.818 243.191 145.11 244.051C146.471 244.957 147.714 245.967 148.592 247.372C148.644 247.456 148.733 247.518 148.804 247.59C148.856 247.509 148.934 247.434 148.954 247.346C149.328 245.658 149.695 243.968 150.063 242.155ZM79.0606 167.221C79.1834 167.047 79.3234 166.882 79.4265 166.697C80.8101 164.213 81.9672 161.656 81.5005 158.706C81.3649 157.849 81.0628 157.011 80.7623 156.191C80.6421 155.864 80.3498 155.711 79.9413 156.005C78.3862 157.124 76.8052 158.206 75.2303 159.297C74.4207 159.858 73.593 160.393 72.8008 160.977C72.6778 161.068 72.6028 161.405 72.6719 161.548C73.8029 163.884 74.9501 166.213 76.1192 168.53C76.4422 169.17 76.9401 169.261 77.4807 168.787C78.0153 168.318 78.4952 167.787 79.0606 167.221ZM160.751 200.02C160.914 198.779 161.091 197.54 161.22 196.296C161.232 196.181 160.941 195.923 160.791 195.923C159.826 195.928 158.862 196.013 157.897 196.022C155.935 196.041 153.971 196.055 152.009 196.017C150.958 195.996 149.91 195.859 148.859 195.784C148.401 195.752 148.115 195.995 148.106 196.438C148.083 197.726 148.086 199.014 148.105 200.302C148.111 200.723 148.25 201.12 148.754 201.182C149.286 201.246 149.823 201.275 150.358 201.308C151.118 201.355 151.879 201.432 152.638 201.425C155.116 201.404 157.594 201.36 160.07 201.292C160.26 201.287 160.507 201.066 160.611 200.88C160.727 200.673 160.71 200.392 160.751 200.02ZM221.066 156.288C220.603 155.784 220.148 155.273 219.674 154.779C219.298 154.386 219.123 154.421 218.988 154.984C218.785 155.828 218.557 156.682 218.508 157.542C218.429 158.936 218.315 160.365 218.53 161.73C218.791 163.382 219.512 164.938 220.535 166.284C220.969 166.857 221.589 167.324 222.204 167.713C222.805 168.092 222.928 167.433 223.013 167.095C223.539 165.015 224.042 162.928 224.486 160.83C224.601 160.286 224.587 159.717 224.044 159.234C223.024 158.326 222.095 157.317 221.066 156.288ZM202.394 185.279C201.69 184.657 200.95 184.07 200.29 183.405C199.042 182.148 197.832 180.853 197.065 179.22C197.016 179.115 196.896 179.044 196.809 178.957C196.746 179.071 196.666 179.179 196.623 179.301C196.348 180.087 196.062 180.871 195.823 181.669C195.747 181.922 195.726 182.242 195.813 182.483C195.972 182.926 196.235 183.331 196.447 183.755C197.518 185.899 198.967 187.759 200.788 189.307C202.135 190.452 203.552 191.517 204.943 192.611C205.026 192.676 205.158 192.679 205.268 192.711C205.287 192.603 205.354 192.476 205.319 192.391C204.719 190.928 205.301 189.444 205.264 187.972C205.255 187.624 205.192 187.482 204.959 187.303C204.119 186.656 203.289 185.996 202.394 185.279ZM181.818 258.186C180.462 258.268 179.106 258.388 177.748 258.423C175.067 258.492 172.385 258.525 169.703 258.551C167.699 258.57 165.695 258.549 163.691 258.557C163.041 258.56 162.972 258.705 162.954 259.599C162.942 260.15 163.198 260.295 163.694 260.279C165.374 260.225 167.054 260.176 168.734 260.155C172.684 260.104 176.634 260.069 180.583 260.029C181.094 260.024 181.606 260.042 182.116 260.021C182.279 260.014 182.553 259.95 182.58 259.856C182.7 259.44 182.842 258.989 182.778 258.583C182.751 258.411 182.235 258.316 181.818 258.186ZM129.917 260.09C130.465 260.151 131.011 260.258 131.56 260.267C134.939 260.322 138.318 260.367 141.698 260.393C144.112 260.412 146.526 260.387 148.94 260.406C149.392 260.41 149.639 260.334 149.578 259.815C149.525 259.363 149.74 258.801 148.935 258.793C147.253 258.776 145.573 258.704 143.891 258.68C140.328 258.63 136.764 258.595 133.201 258.555C133.078 258.553 132.955 258.559 132.833 258.554C131.97 258.514 131.107 258.456 130.244 258.447C130.095 258.446 129.826 258.644 129.816 258.767C129.78 259.183 129.835 259.607 129.917 260.09ZM147.054 81.1702C148.491 80.5757 149.968 80.2169 151.544 80.2993C152.398 80.3438 153.194 80.4762 153.899 80.9993C154.044 81.1066 154.284 81.2884 154.371 80.8651C154.548 80.0035 154.78 79.1533 154.968 78.2939C154.993 78.1817 154.935 77.997 154.85 77.9241C154.325 77.4786 153.842 76.9145 153.233 76.6503C150.979 75.6731 148.809 76.0931 146.761 77.3119C146.566 77.428 146.389 77.7697 146.398 77.9997C146.435 79.0511 146.552 80.0995 146.62 81.1502C146.654 81.6821 146.831 81.379 147.054 81.1702ZM106.7 188.227C106.327 189.026 106.341 189.838 106.572 190.674C106.801 191.503 106.986 192.344 107.192 193.18C107.214 193.27 107.241 193.359 107.266 193.448C107.364 193.387 107.481 193.344 107.556 193.262C108.353 192.392 109.192 191.554 109.926 190.632C111.002 189.28 111.913 187.814 112.592 186.217C112.791 185.75 112.778 185.284 112.477 184.835C112.093 184.262 111.743 183.666 111.366 183.088C111.167 182.783 110.921 182.79 110.666 183.033C109.087 184.533 107.663 186.15 106.7 188.227ZM153.38 141.056C153.298 141.41 153.197 141.762 153.138 142.12C152.954 143.229 153.918 143.928 154.145 144.891C154.258 144.845 154.465 144.811 154.472 144.752C154.619 143.588 155.141 142.576 155.714 141.582C157.032 139.293 158.29 136.962 160.074 134.985C161.289 133.639 162.552 132.336 163.789 131.01C163.879 130.914 163.928 130.781 163.996 130.665C163.848 130.628 163.681 130.527 163.555 130.564C163.083 130.701 162.619 130.868 162.166 131.058C162.072 131.097 161.956 131.326 161.992 131.394C162.374 132.135 161.723 132.328 161.338 132.637C159.899 133.795 158.43 134.916 157.007 136.092C156.111 136.832 155.276 137.647 154.411 138.425C154.239 138.581 154.038 138.706 153.874 138.869C153.289 139.453 153.369 140.203 153.38 141.056ZM158.478 131.904C157.69 132.027 156.905 132.184 156.113 132.266C154.321 132.451 152.526 132.606 150.731 132.759C150.365 132.791 149.994 132.753 149.627 132.77C149.5 132.776 149.377 132.854 149.253 132.899C149.336 133.015 149.393 133.177 149.505 133.239C150.831 133.972 151.724 135.166 152.731 136.238C152.965 136.487 153.09 136.908 153.365 137.037C153.854 137.266 153.917 136.653 154.182 136.432C154.933 135.803 155.634 135.113 156.392 134.493C157.424 133.648 158.492 132.848 159.541 132.025C159.628 131.957 159.693 131.86 159.768 131.776C159.652 131.737 159.526 131.648 159.422 131.668C159.143 131.722 158.874 131.822 158.478 131.904ZM124.451 190.868C123.866 190.653 123.27 190.464 122.702 190.212C122.305 190.036 122.185 190.184 122.181 190.54C122.172 191.336 122.131 192.136 122.198 192.926C122.231 193.317 122.172 193.809 122.642 194.064C123.693 194.633 124.739 195.211 125.79 195.779C125.905 195.841 126.041 195.864 126.167 195.905C126.188 195.772 126.226 195.639 126.229 195.506C126.246 194.789 126.226 194.07 126.274 193.355C126.303 192.938 126.325 192.45 126.548 192.132C126.883 191.654 126.562 191.598 126.277 191.487C125.714 191.267 125.142 191.073 124.451 190.868ZM114.071 70.2987C114.394 69.9609 114.405 69.656 114 69.3643C113.367 68.9095 112.725 68.4647 112.127 67.9688C111.799 67.6978 111.544 67.6999 111.322 68.0198C110.728 68.8743 110.149 69.7391 109.595 70.6195C109.519 70.7397 109.553 71.0416 109.654 71.142C110.424 71.9116 111.221 72.6551 112.02 73.3951C112.075 73.4457 112.283 73.4405 112.308 73.3971C112.885 72.3901 113.445 71.3743 114.071 70.2987ZM149.879 138.292C150.432 139.085 150.978 139.882 151.545 140.665C151.622 140.772 151.802 140.804 151.935 140.872C151.937 140.74 151.939 140.608 151.94 140.476C151.946 139.956 151.798 139.366 151.995 138.935C152.242 138.396 152.104 138.006 151.815 137.672C151.09 136.834 150.361 135.983 149.522 135.267C148.582 134.464 147.552 133.752 146.497 133.105C146.03 132.819 145.409 132.778 144.852 132.651C144.769 132.632 144.655 132.751 144.555 132.806C144.636 132.874 144.714 132.947 144.8 133.009C145.115 133.232 145.467 133.416 145.744 133.679C146.469 134.364 147.196 135.053 147.858 135.797C148.55 136.574 149.168 137.417 149.879 138.292ZM187.653 188.964C187.682 188.853 187.738 188.742 187.733 188.632C187.727 188.491 187.672 188.352 187.639 188.213C187.525 188.254 187.4 188.276 187.301 188.339C186.702 188.723 186.103 189.108 185.515 189.51C185.17 189.746 184.686 189.852 184.925 190.521C185.099 191.009 185.047 191.582 185.069 192.119C185.089 192.609 185.065 193.101 185.08 193.591C185.083 193.695 185.17 193.797 185.218 193.9C185.29 193.854 185.365 193.811 185.435 193.762C185.99 193.372 186.553 192.994 187.092 192.583C187.271 192.447 187.496 192.235 187.512 192.042C187.593 191.06 187.612 190.073 187.653 188.964ZM189.25 71.8956C189.414 72.2974 189.596 72.6928 189.737 73.1024C189.966 73.7661 189.955 73.77 190.418 73.3078C190.533 73.1923 190.649 73.0768 190.764 72.9613C191.618 72.1071 191.639 72.0958 191.085 71.0583C190.726 70.3857 190.306 69.744 189.891 69.1028C189.516 68.5234 189.043 68.7744 188.607 69.0137C188.227 69.2226 188.044 69.5159 188.295 69.9638C188.628 70.5588 188.933 71.1691 189.25 71.8956ZM207.492 192.957C208.266 192.306 209.058 191.675 209.807 190.998C210.411 190.452 210.97 189.854 211.532 189.264C211.593 189.199 211.541 189.026 211.542 188.903C211.073 188.923 210.522 188.792 210.15 188.992C209.154 189.529 208.275 190.283 207.271 190.799C206.715 191.084 206.627 191.418 206.699 191.911C206.752 192.271 206.837 192.628 206.95 192.973C206.993 193.106 207.151 193.202 207.257 193.314C207.315 193.216 207.373 193.117 207.492 192.957ZM105.349 194.247C105.472 194.138 105.664 194.051 105.705 193.917C105.882 193.343 105.534 192.591 104.952 192.351C104.36 192.107 103.748 191.901 103.129 191.737C102.459 191.559 101.796 191.945 101.722 192.642C101.701 192.839 102.231 193.103 102.519 193.322C102.638 193.412 102.777 193.49 102.919 193.532C103.717 193.765 104.395 194.367 105.349 194.247Z" fill="white"/>
<path d="M130.409 158.315C129.624 158.04 128.935 157.705 128.693 156.894C128.56 156.451 128.466 155.982 128.453 155.522C128.39 153.369 128.353 151.216 128.323 149.063C128.306 147.814 128.327 146.565 128.317 145.316C128.313 144.76 128.63 144.423 129.087 144.248C129.277 144.175 129.634 144.238 129.774 144.379C130.53 145.146 131.511 145.388 132.498 145.519C133.492 145.652 134.512 145.69 135.515 145.647C137.311 145.571 139.1 145.371 140.839 144.874C141.618 144.651 141.996 145.003 141.835 145.802C141.781 146.069 141.722 146.34 141.715 146.611C141.665 148.436 141.633 150.262 141.586 152.088C141.554 153.299 141.535 154.513 141.454 155.721C141.402 156.505 141.078 157.245 140.421 157.674C138.98 158.613 137.383 159.126 135.642 159.182C134.05 159.233 132.49 159.112 130.983 158.559C130.806 158.494 130.641 158.397 130.409 158.315ZM140.113 154.568C140.154 154.401 140.221 154.236 140.232 154.066C140.282 153.224 140.329 152.382 140.356 151.539C140.406 149.98 140.432 148.42 140.487 146.862C140.503 146.412 140.27 146.355 139.919 146.41C138.901 146.569 137.888 146.795 136.863 146.873C135.798 146.953 134.722 146.888 133.651 146.892C132.41 146.896 131.235 146.575 130.097 146.13C129.678 145.967 129.532 145.958 129.543 146.46C129.597 148.803 129.624 151.147 129.675 153.491C129.694 154.375 129.728 155.261 129.811 156.14C129.834 156.384 130.005 156.699 130.206 156.826C131.296 157.511 132.548 157.789 133.793 157.92C135.266 158.076 136.741 157.938 138.144 157.338C139.982 156.552 140.195 156.462 140.113 154.568Z" fill="white"/>
<path d="M156.912 162.83C158.037 161.704 158.9 161.586 160.045 162.332C160.847 162.854 161.102 163.629 160.978 164.496C160.854 165.357 160.345 166.004 159.482 166.299C157.884 166.844 156.608 165.681 156.479 164.209C156.441 163.775 156.738 163.311 156.912 162.83ZM158.171 164.764C158.741 165.184 159.068 165.182 159.428 164.731C159.753 164.325 159.753 163.889 159.38 163.531C159.054 163.219 158.661 163.112 158.256 163.449C157.848 163.788 157.794 164.215 158.171 164.764Z" fill="white"/>
<path d="M161.027 179.536C161.866 181.059 161.091 182.611 159.748 182.945C158.537 183.246 157.292 182.848 156.949 181.296C156.639 179.893 157.592 178.529 158.982 178.485C159.774 178.46 160.504 178.811 161.027 179.536ZM160.014 180.734C159.957 180.595 159.923 180.44 159.839 180.32C159.527 179.879 159.126 179.81 158.65 180.056C158.154 180.312 158.241 180.746 158.345 181.141C158.486 181.677 158.965 181.791 159.38 181.625C159.65 181.517 159.806 181.123 160.014 180.734Z" fill="white"/>
<path d="M158.785 153.647C159.634 153.875 160.304 154.224 160.637 155.058C161.086 156.182 160.744 157.139 159.853 157.775C158.846 158.493 157.845 158.303 156.985 157.556C156.124 156.808 156.162 155.456 156.704 154.674C157.202 153.954 157.864 153.622 158.785 153.647ZM158.908 156.78C159.486 156.582 159.499 156.058 159.364 155.659C159.269 155.381 158.846 155.053 158.56 155.045C158.289 155.037 157.9 155.358 157.752 155.636C157.422 156.254 157.98 156.835 158.908 156.78Z" fill="white"/>
<path d="M160.781 173.824C160.135 174.916 158.518 175.067 157.713 174.485C156.136 173.345 156.389 171.304 157.986 170.517C159.093 169.971 160.709 170.42 161.127 171.999C161.303 172.664 161.181 173.241 160.781 173.824ZM159.092 171.705C158.991 171.705 158.848 171.662 158.795 171.712C158.533 171.964 158.155 172.207 158.082 172.516C157.984 172.93 158.293 173.308 158.737 173.414C159.175 173.52 159.578 173.404 159.724 172.91C159.881 172.383 159.737 171.958 159.092 171.705Z" fill="white"/>
<path d="M158.908 187.306C159.794 187.306 160.528 187.752 160.751 188.388C161.001 189.102 160.682 190.195 160.108 190.589C159.512 190.999 158.493 190.959 157.869 190.5C157.395 190.152 157.123 189.18 157.311 188.512C157.502 187.834 158.114 187.354 158.908 187.306ZM158.601 188.534C158.563 188.824 158.437 189.141 158.517 189.393C158.572 189.564 158.929 189.757 159.125 189.732C159.335 189.705 159.582 189.469 159.683 189.261C159.756 189.11 159.681 188.736 159.561 188.672C159.299 188.534 158.966 188.531 158.601 188.534Z" fill="white"/>
<path d="M160.474 146.676C159.976 146.563 159.909 146.162 160.044 145.878C160.15 145.656 160.535 145.448 160.79 145.455C160.986 145.46 161.272 145.779 161.343 146.012C161.46 146.399 161.212 146.633 160.799 146.66C160.7 146.667 160.603 146.691 160.474 146.676Z" fill="white"/>
<path d="M159.553 143.851C159.12 143.993 158.674 144.065 158.567 143.545C158.516 143.299 158.678 142.851 158.876 142.747C159.187 142.583 159.577 142.706 159.814 143.063C160.049 143.419 159.804 143.612 159.553 143.851Z" fill="white"/>
<path d="M150.309 118.269C152.426 118.092 154.455 117.766 156.449 117.228C158.186 116.759 159.863 116.15 161.326 115.07C161.804 114.718 162.254 114.324 162.692 113.923C163.016 113.627 163.325 113.638 163.657 113.868C164.05 114.139 163.957 114.413 163.718 114.762C163.041 115.752 162.098 116.43 161.085 116.996C158.904 118.215 156.513 118.866 154.085 119.358C153.009 119.576 151.9 119.664 150.801 119.733C148.913 119.851 147.022 119.965 145.131 119.966C144.036 119.967 142.94 119.749 141.846 119.613C141.664 119.591 141.466 119.516 141.323 119.404C141.019 119.168 140.669 118.874 140.874 118.449C141.149 117.88 141.73 117.995 142.222 118.031C142.866 118.079 143.503 118.222 144.148 118.261C145.275 118.33 146.406 118.379 147.535 118.383C148.439 118.386 149.343 118.31 150.309 118.269Z" fill="white"/>
<path d="M131.146 207.698C131.292 207.739 131.373 207.796 131.463 207.818C131.87 207.918 131.987 208.246 131.856 208.548C131.777 208.733 131.445 208.887 131.211 208.912C130.199 209.018 129.25 208.7 128.35 208.3C127.267 207.818 126.12 207.409 125.321 206.462C125.166 206.279 125.016 205.968 125.063 205.761C125.196 205.184 125.67 205.168 126.192 205.621C127.595 206.839 129.259 207.464 131.146 207.698Z" fill="white"/>
<path d="M183.937 203.613C184.357 203.439 184.763 203.327 185.132 203.142C185.527 202.944 185.91 202.921 186.122 203.306C186.361 203.739 186.078 204.088 185.677 204.249C184.889 204.566 184.1 204.933 183.275 205.09C182.411 205.256 181.502 205.251 180.618 205.212C180.334 205.199 179.973 204.892 179.825 204.622C179.729 204.448 179.915 204.07 180.061 203.837C180.121 203.741 180.476 203.699 180.577 203.781C181.257 204.329 181.958 204.067 182.666 203.903C183.078 203.808 183.493 203.73 183.937 203.613Z" fill="white"/>
<path d="M122.148 46.9894C119.704 48.7849 117.561 50.853 115.522 53.0223C114.018 54.6215 112.59 56.2936 111.176 57.9743C109.782 59.6333 108.428 61.3283 107.093 63.0363C105.742 64.7654 104.406 66.506 103.593 68.5848C103.469 68.9013 103.209 69.4162 102.691 69.2053C102.46 69.1113 102.189 68.7675 102.188 68.536C102.186 68.1781 102.385 67.8127 102.526 67.4617C103.278 65.5983 104.491 64.0256 105.703 62.4532C106.827 60.9934 107.939 59.5232 109.095 58.0889C109.883 57.1113 110.715 56.1665 111.568 55.2441C113.42 53.2402 115.233 51.1947 117.182 49.2881C119.241 47.2727 121.527 45.5287 124.028 44.0556C126.792 42.427 129.702 41.1522 132.755 40.2175C134.401 39.7135 136.105 39.3879 137.796 39.0458C139.26 38.7497 140.739 38.5188 142.218 38.3075C143.139 38.176 144.071 38.0929 145.001 38.0603C147.934 37.9575 150.869 37.8114 153.802 37.8348C155.68 37.8498 157.556 38.1358 159.433 38.2975C159.968 38.3436 160.503 38.4037 161.04 38.417C163.11 38.4682 165.187 38.6164 167.25 38.5126C169.386 38.4053 171.502 38.0522 173.607 37.5938C175.409 37.2011 177.153 36.6669 178.794 35.8755C179.997 35.2958 181.145 34.5451 182.187 33.708C183.228 32.8713 184.105 31.8297 185.06 30.8849C185.212 30.7349 185.391 30.5311 185.573 30.5123C185.857 30.4832 186.215 30.5136 186.421 30.6738C186.529 30.7575 186.477 31.2617 186.33 31.4226C185.276 32.5735 184.241 33.7543 183.079 34.7896C181.889 35.8499 180.49 36.6345 179.042 37.3232C177.4 38.1038 175.69 38.6754 173.915 39.0227C172.35 39.3288 170.771 39.6053 169.185 39.7518C167.344 39.922 165.489 39.9882 163.64 40.0005C162.323 40.0093 161.005 39.8641 159.689 39.7699C158.122 39.6578 156.559 39.4782 154.99 39.4156C152.798 39.3282 150.603 39.2856 148.41 39.2949C147.133 39.3004 145.852 39.3939 144.583 39.5392C142.878 39.7345 141.187 40.0596 139.482 40.2545C136.546 40.5901 133.703 41.3202 130.964 42.3795C129.044 43.122 127.203 44.0798 125.367 45.0214C124.264 45.5878 123.239 46.3077 122.148 46.9894Z" fill="white"/>
<path d="M124.727 52.1488C122.943 53.4822 121.19 54.7847 119.437 56.0878C118.952 56.4487 118.486 56.84 117.977 57.1635C117.623 57.3883 117.168 57.5457 116.867 57.1053C116.579 56.6833 116.842 56.3089 117.172 56.0254C117.893 55.406 118.597 54.7592 119.368 54.2069C121.524 52.6614 123.69 51.1264 125.892 49.6465C128.628 47.8078 131.581 46.4089 134.809 45.6857C136.343 45.3419 137.913 45.14 139.476 44.943C140.872 44.767 142.288 44.7439 143.68 44.548C145.264 44.325 146.818 44.5256 148.381 44.6856C148.422 44.6897 148.463 44.6849 148.504 44.6863C149.715 44.727 150.926 44.7827 152.138 44.8059C154.782 44.8566 157.426 44.9138 160.071 44.9232C161.671 44.9289 163.272 44.8677 164.871 44.8036C166.271 44.7474 167.673 44.683 169.068 44.5545C171.246 44.3539 173.41 44.0428 175.478 43.2827C177.058 42.7017 178.696 42.222 180.182 41.4542C181.597 40.7235 182.902 39.7457 184.159 38.7547C186.212 37.1368 187.599 34.9285 189.11 32.8409C189.624 32.1302 189.868 31.9693 190.257 32.2421C190.743 32.5821 190.688 32.9576 190.17 33.6428C189.35 34.7278 188.59 35.8584 187.771 36.9444C186.651 38.43 185.37 39.7613 183.873 40.8796C181.302 42.8007 178.366 43.9597 175.335 44.8741C173.902 45.3064 172.403 45.5385 170.92 45.7761C169.902 45.9392 168.863 45.9881 167.83 46.0309C165.368 46.1329 162.904 46.2023 160.44 46.2826C159.106 46.3261 157.772 46.4002 156.438 46.397C154.755 46.3929 153.073 46.3412 151.391 46.278C149.848 46.2199 148.307 46.0869 146.764 46.0464C145.202 46.0054 143.62 45.8841 142.08 46.0711C139.365 46.4008 136.663 46.8745 133.982 47.4195C132.886 47.6424 131.822 48.1333 130.809 48.634C129.19 49.4336 127.619 50.331 126.043 51.2137C125.588 51.4682 125.185 51.8141 124.727 52.1488Z" fill="white"/>
<path d="M159.277 33.5074C157.321 33.6697 155.404 33.6422 153.565 34.2385C153.346 34.3095 153.083 34.4098 152.888 34.347C152.619 34.26 152.271 34.0797 152.182 33.8516C152.061 33.5418 152.122 33.1171 152.59 33.0195C153.816 32.7637 155.035 32.4206 156.275 32.3034C158.135 32.1277 160.012 32.0261 161.878 32.061C163.429 32.0899 164.975 32.3632 166.524 32.524C167.741 32.6504 168.959 32.7749 170.177 32.8912C170.731 32.9441 171.288 33.008 171.844 33.0101C173.79 33.0176 175.482 32.2697 177.026 31.1607C177.751 30.6404 178.171 30.515 178.463 30.8895C178.748 31.2539 178.521 31.66 177.85 32.2033C176.398 33.378 174.719 34.0698 172.909 34.3332C171.89 34.4815 170.819 34.3043 169.774 34.2385C168.946 34.1864 168.122 34.0876 167.297 33.9973C165.851 33.8389 164.409 33.6191 162.958 33.5236C161.756 33.4445 160.545 33.5074 159.277 33.5074Z" fill="white"/>
<path d="M122.946 37.9605C121.327 39.0473 119.725 40.0835 118.156 41.1687C117.461 41.6499 116.784 42.1813 116.189 42.779C115.564 43.406 115.031 44.1277 114.49 44.8325C114.25 45.1443 114.103 45.5926 113.598 45.3663C113.151 45.1665 113.022 44.5543 113.405 44.0852C114.29 43.0029 115.151 41.8711 116.194 40.9551C117.461 39.8426 118.867 38.8747 120.281 37.9487C121.765 36.9771 123.307 36.0864 124.866 35.2392C126.447 34.38 128.055 33.5588 129.699 32.8307C131.018 32.2471 132.34 31.6217 133.83 31.5299C134.305 31.5006 134.653 31.7364 134.655 32.0865C134.656 32.3543 134.293 32.8032 134.022 32.8658C131.02 33.5579 128.387 35.0888 125.683 36.4585C124.768 36.9224 123.878 37.4379 122.946 37.9605Z" fill="white"/>
<path d="M171.407 49.4462C170.779 49.5179 170.183 49.5617 169.585 49.5989C169.129 49.6272 168.767 49.3821 168.774 48.9704C168.777 48.7266 169.12 48.347 169.379 48.2756C170.105 48.0751 170.874 48.0365 171.612 47.8723C172.768 47.6148 173.941 47.3851 175.058 47.0024C176.9 46.3715 178.742 45.7115 180.512 44.9061C182.007 44.2257 183.365 43.2821 184.604 42.1684C185.683 41.1989 186.646 40.1556 187.364 38.8935C187.505 38.6455 187.612 38.3729 187.783 38.1483C187.988 37.8791 188.234 37.6837 188.617 37.9235C188.968 38.1442 189.027 38.4079 188.883 38.7731C188.067 40.8507 186.5 42.3132 184.868 43.7344C183.59 44.8473 182.172 45.7402 180.65 46.4552C178.205 47.6035 175.671 48.5139 173.03 49.1061C172.503 49.2244 171.969 49.3132 171.407 49.4462Z" fill="white"/>
<path d="M181.787 38.8204C180.58 39.5677 179.456 40.4007 178.213 40.9735C176.349 41.8325 174.377 42.4195 172.361 42.8655C171.306 43.0988 170.265 43.2379 169.192 43.2155C168.736 43.206 168.403 43.0006 168.384 42.5567C168.366 42.1018 168.711 41.8894 169.15 41.8614C170.859 41.7524 172.53 41.4412 174.146 40.874C175.664 40.341 177.202 39.8454 178.67 39.1956C179.504 38.8264 180.295 38.2659 180.965 37.6413C182.196 36.4952 183.307 35.2222 184.508 34.0427C184.704 33.8498 185.105 33.8645 185.411 33.7832C185.441 34.1013 185.6 34.487 185.476 34.7236C185.198 35.2523 184.819 35.745 184.408 36.1834C183.57 37.0763 182.684 37.9236 181.787 38.8204Z" fill="white"/>
<path d="M100.435 83.8728C100.394 85.1656 100.343 86.3969 100.319 87.6287C100.313 87.9695 100.25 88.2261 99.8777 88.2935C99.466 88.3681 99.1246 88.1087 99.1077 87.7923C99.0418 86.5574 99.0543 85.3173 99.0685 84.0795C99.0744 83.5669 99.1432 83.0533 99.2097 82.5436C99.364 81.3618 99.53 80.1815 99.6993 79.0017C99.8572 77.9022 99.9909 76.7975 100.198 75.7071C100.45 74.3869 100.735 73.0707 101.085 71.7743C101.149 71.5368 101.596 71.2524 101.862 71.2562C102.231 71.2616 102.475 71.6101 102.398 72.0385C102.228 72.9894 102.044 73.9378 101.866 74.8873C101.634 76.1218 101.397 77.3552 101.174 78.5912C100.961 79.7737 100.746 80.9565 100.565 82.1442C100.482 82.6937 100.476 83.2552 100.435 83.8728Z" fill="white"/>
<path d="M100.896 64.1873C101.346 63.0409 101.742 61.9154 102.195 60.8133C102.446 60.2013 102.816 59.6387 103.09 59.0347C103.309 58.5522 103.704 58.4356 104.091 58.6309C104.52 58.8473 104.443 59.3083 104.279 59.6928C103.725 60.9983 103.085 62.2722 102.606 63.6041C101.79 65.8688 101.06 68.1648 100.322 70.4564C100.174 70.9132 100.149 71.4091 100.066 71.8867C99.9933 72.3088 99.6655 72.4192 99.3515 72.3027C99.1388 72.2239 98.854 71.9188 98.8656 71.7312C98.9072 71.0567 98.9979 70.3709 99.1844 69.7222C99.7144 67.8788 100.301 66.0516 100.896 64.1873Z" fill="white"/>
<path d="M158.386 48.6478C160.367 48.7067 162.332 48.9979 164.248 48.3693C164.462 48.2988 164.684 48.2265 164.874 48.1085C165.27 47.8624 165.553 48.0103 165.801 48.3256C166.082 48.6832 165.81 48.9864 165.575 49.1073C164.923 49.443 164.245 49.8116 163.537 49.9393C162.467 50.1323 161.357 50.2314 160.272 50.1877C159.048 50.1382 157.825 49.9189 156.615 49.7007C156.297 49.6432 155.763 49.5394 155.951 48.9325C156.103 48.4389 156.483 48.2672 157.035 48.3957C157.469 48.4965 157.915 48.5452 158.386 48.6478Z" fill="white"/>
<path d="M104.888 73.5847C104.368 74.9646 103.856 76.3061 103.404 77.6675C103.267 78.0799 103.115 78.3798 102.653 78.3361C102.339 78.3063 102.077 77.6523 102.197 77.2602C102.465 76.3916 102.695 75.5071 103.026 74.663C103.515 73.4169 104.06 72.1912 104.624 70.9768C104.784 70.633 105.043 70.324 105.557 70.5924C105.935 70.7897 105.961 71.0911 105.856 71.3701C105.579 72.1111 105.236 72.8277 104.888 73.5847Z" fill="white"/>
<path d="M119.506 44.7168C119.247 44.9352 119.044 45.1956 118.782 45.2884C118.555 45.3688 118.141 45.3536 118.027 45.2091C117.89 45.0354 117.862 44.5568 117.997 44.4246C118.659 43.7765 119.378 43.184 120.105 42.607C120.334 42.4251 120.646 42.2662 120.926 42.2549C121.175 42.245 121.654 42.471 121.646 42.5636C121.623 42.8688 121.502 43.2494 121.28 43.4401C120.741 43.9036 120.123 44.2766 119.506 44.7168Z" fill="white"/>
<path d="M128.32 38.544C127.509 38.8029 126.744 39.0279 126.013 39.3329C125.548 39.5273 125.193 39.3394 125.082 38.9982C125.015 38.7921 125.284 38.3128 125.518 38.2005C126.418 37.7701 127.356 37.4115 128.299 37.0822C128.716 36.9368 129.161 37.1123 129.282 37.5443C129.41 38.0042 128.985 38.2228 128.637 38.4203C128.555 38.4668 128.467 38.503 128.32 38.544Z" fill="white"/>
<path d="M135.353 77.8228C137.285 79.7241 138.496 82.0085 139.316 84.5128C139.406 84.7867 139.361 85.2583 139.179 85.4395C138.601 86.0176 137.88 86.3544 137.034 86.4639C135.169 86.7054 133.42 86.2031 131.679 85.6835C130.209 85.2447 128.714 84.9504 127.197 85.1292C126.204 85.2462 125.254 85.681 124.266 85.8847C123.105 86.1241 121.93 86.3178 120.751 86.4357C119.893 86.5215 119.005 86.5479 118.157 86.4211C117.522 86.3261 116.905 85.9914 116.326 85.6781C115.742 85.3622 115.826 84.8242 116.121 84.3501C116.914 83.0781 117.622 81.7286 118.577 80.5893C119.64 79.322 120.854 78.1423 122.16 77.1282C123.499 76.088 125.081 75.4583 126.791 75.1323C129.374 74.6399 131.68 75.2575 133.835 76.6329C134.363 76.9694 134.828 77.403 135.353 77.8228ZM132.681 77.7306C131.149 76.8096 129.495 76.4625 127.714 76.6184C126.126 76.7574 124.707 77.3421 123.389 78.1877C121.946 79.1141 120.733 80.3131 119.689 81.6591C119.045 82.4893 118.534 83.4249 117.986 84.3268C117.765 84.69 117.8 84.9813 118.333 84.9791C119.057 84.9761 119.781 84.9654 120.504 84.9811C121.868 85.0108 123.147 84.6087 124.441 84.2585C125.476 83.9787 126.514 83.6425 127.571 83.5301C129.187 83.3583 130.756 83.7565 132.305 84.2238C133.682 84.6396 135.074 85.0199 136.537 84.9789C137.448 84.9533 137.703 84.5799 137.366 83.7663C136.367 81.355 134.99 79.2367 132.681 77.7306Z" fill="white"/>
<path d="M173.434 86.4218C172.415 86.5344 171.42 86.6402 170.441 86.8303C169.16 87.079 167.898 87.4242 166.616 87.6695C165.864 87.8137 165.088 87.921 164.325 87.9086C163.201 87.8903 162.103 87.6455 161.142 87.0164C160.638 86.6865 160.662 86.1744 160.937 85.7269C161.724 84.4508 162.529 83.185 163.37 81.945C163.747 81.3899 164.189 80.8646 164.671 80.3972C166.586 78.5379 168.72 77.0765 171.402 76.4829C173.603 75.9956 175.682 76.3295 177.635 77.2774C179.095 77.9857 180.282 79.1097 181.318 80.399C182.598 81.993 183.51 83.7557 184.128 85.6893C184.365 86.4331 184.184 86.8135 183.526 87.1964C181.872 88.1579 180.159 87.8643 178.438 87.4932C176.783 87.1361 175.199 86.4346 173.434 86.4218ZM172.482 84.8555C173.116 84.8555 173.774 84.7465 174.38 84.8759C176.212 85.2667 178.015 85.7903 179.848 86.176C180.5 86.3134 181.207 86.2403 181.885 86.1937C182.326 86.1634 182.476 85.8014 182.36 85.4107C182.231 84.9782 182.055 84.5527 181.844 84.1532C180.946 82.4486 179.922 80.8467 178.347 79.6547C176.185 78.0179 173.832 77.4351 171.182 78.1664C168.661 78.862 166.716 80.4186 165.073 82.3526C164.218 83.359 163.576 84.5462 162.84 85.6533C162.536 86.1105 162.835 86.2972 163.212 86.3203C165.221 86.443 167.189 86.2073 169.125 85.6441C170.19 85.3346 171.28 85.1155 172.482 84.8555Z" fill="white"/>
<path d="M197.358 51.1967C197.194 49.9338 197.027 48.7326 196.867 47.5307C196.74 46.5789 196.644 45.6225 196.493 44.6746C196.201 42.8371 195.863 41.0062 195.138 39.2794C194.95 38.8325 194.962 38.3804 195.357 38.2092C195.717 38.053 196.246 38.0593 196.426 38.6532C196.811 39.9257 197.268 41.1799 197.587 42.4686C197.907 43.7611 198.109 45.0839 198.334 46.3983C198.45 47.0751 198.499 47.7632 198.587 48.4451C198.747 49.688 198.919 50.9294 199.075 52.173C199.133 52.6451 199.174 53.1207 199.197 53.5959C199.248 54.6022 199.299 55.6089 199.32 56.616C199.371 59.158 199.429 61.7003 199.437 64.2427C199.443 65.8839 199.397 67.5271 199.313 69.1663C199.237 70.6533 199.092 72.1376 198.942 73.6194C198.913 73.9074 198.775 74.2271 198.586 74.4428C198.433 74.6179 198.045 74.8047 197.905 74.7271C197.664 74.5928 197.393 74.2627 197.384 74.0058C197.354 73.1858 197.43 72.3612 197.483 71.5395C197.556 70.4058 197.695 69.2742 197.717 68.14C197.784 64.6564 197.856 61.1718 197.83 57.6883C197.815 55.7933 197.606 53.8997 197.477 52.006C197.46 51.7552 197.399 51.5074 197.358 51.1967Z" fill="white"/>
<path d="M195.392 63.8495C195.31 64.3265 195.301 64.7774 195.121 65.1454C195.002 65.3891 194.637 65.6625 194.387 65.658C193.993 65.6509 193.781 65.3008 193.794 64.8668C193.839 63.29 193.874 61.7128 193.919 60.1359C193.956 58.8449 194.082 57.5501 194.02 56.2642C193.948 54.7745 193.688 53.2947 193.569 51.8059C193.543 51.4801 193.634 51.0463 194.11 50.9514C194.626 50.8484 194.901 51.1341 195.016 51.5784C195.132 52.0262 195.21 52.4869 195.264 52.9467C195.329 53.4991 195.357 54.0562 195.391 54.6118C195.474 55.9888 195.606 57.366 195.613 58.7435C195.618 59.8729 195.459 61.0023 195.397 62.1331C195.367 62.6832 195.392 63.2363 195.392 63.8495Z" fill="white"/>
<path d="M190.632 57.3696C190.638 57.8441 190.304 57.9008 189.996 57.9477C189.651 58.0004 189.384 57.8603 189.379 57.4814C189.363 56.396 189.336 55.3079 189.405 54.2268C189.419 54.0219 189.86 53.6866 190.089 53.6986C190.311 53.7101 190.684 54.0838 190.695 54.3125C190.743 55.3185 190.683 56.3296 190.632 57.3696Z" fill="white"/>
<path d="M186.179 50.951C186.787 50.9369 187.059 51.2034 187.038 51.7496C187.001 52.6909 186.978 53.6333 186.907 54.5721C186.874 55.0126 186.56 55.3006 186.122 55.2326C185.749 55.1747 185.532 54.8881 185.56 54.4518C185.618 53.5322 185.618 52.6081 185.706 51.6919C185.73 51.4342 185.974 51.1974 186.179 50.951Z" fill="white"/>
<path d="M190.356 47.7572C190.356 48.3286 190.358 48.8386 190.355 49.3486C190.352 49.7209 190.393 50.1283 189.878 50.212C189.32 50.3027 189.055 49.9709 189.014 49.4888C188.939 48.5905 188.913 47.6877 188.892 46.7861C188.888 46.6533 188.995 46.4942 189.094 46.3869C189.426 46.025 190.102 46.1722 190.224 46.6473C190.311 46.9857 190.315 47.3455 190.356 47.7572Z" fill="white"/>
<path d="M174.294 235.245C175.478 235.132 176.633 234.969 177.784 234.991C178.984 235.014 180.181 235.206 181.377 235.346C181.555 235.366 181.725 235.492 181.89 235.585C182.251 235.789 182.54 236.111 182.336 236.505C182.162 236.841 181.832 237.006 181.339 236.856C180.711 236.665 180.03 236.625 179.368 236.573C178.486 236.503 177.6 236.438 176.717 236.457C175.951 236.472 175.189 236.621 174.423 236.682C174.055 236.712 173.614 236.792 173.529 236.239C173.442 235.674 173.764 235.403 174.294 235.245Z" fill="white"/>
<path d="M169.073 235.368C168.947 235.637 168.841 235.947 168.624 236.101C168.016 236.53 167.358 236.89 166.726 237.288C166.362 237.517 166.011 237.446 165.821 237.119C165.702 236.914 165.682 236.515 165.806 236.33C166.374 235.484 167.231 235.048 168.213 234.848C168.625 234.765 168.903 234.942 169.073 235.368Z" fill="white"/>
<path d="M130.777 237.057C130.532 236.915 130.191 236.769 130.196 236.633C130.205 236.362 130.337 235.939 130.533 235.858C131.127 235.613 131.769 235.408 132.406 235.357C133.713 235.251 135.03 235.207 136.342 235.234C137.05 235.248 137.75 235.494 138.461 235.571C138.961 235.626 139.133 235.979 139.104 236.328C139.069 236.75 138.712 236.965 138.255 236.936C136.919 236.85 135.581 236.696 134.246 236.711C133.109 236.724 131.974 236.934 130.777 237.057Z" fill="white"/>
<path d="M145.672 235.552C146.051 235.922 146.44 236.231 146.725 236.617C146.831 236.759 146.778 237.185 146.643 237.299C146.465 237.449 146.081 237.54 145.88 237.449C145.206 237.145 144.553 236.78 143.937 236.372C143.667 236.194 143.291 235.949 143.55 235.478C143.824 234.98 144.204 234.866 144.881 235.136C145.144 235.241 145.388 235.392 145.672 235.552Z" fill="white"/>
<path d="M154.731 197.625C155.718 197.625 156.644 197.628 157.57 197.623C158.049 197.621 158.338 197.845 158.414 198.316C158.5 198.847 158.112 199.058 157.722 199.083C156.435 199.166 155.143 199.164 153.854 199.23C153.352 199.255 152.85 199.349 152.357 199.454C151.833 199.566 151.255 199.338 151.169 198.94C151.056 198.418 151.25 198.131 151.946 198.003C152.847 197.839 153.761 197.748 154.731 197.625Z" fill="white"/>
<path d="M203.039 188.688C203.679 188.293 204.244 188.314 204.519 188.769C204.799 189.231 204.81 189.667 204.287 190.143C203.95 190.45 203.584 190.47 203.25 190.178C202.913 189.882 202.562 189.558 202.883 189.032C202.941 188.937 202.967 188.824 203.039 188.688Z" fill="white"/>
<path d="M107.406 188.995C108.112 188.859 108.579 189.133 108.666 189.684C108.759 190.278 108.263 190.938 107.682 190.99C107.622 190.996 107.526 191.016 107.504 190.987C107.311 190.724 107.018 190.469 106.973 190.177C106.909 189.772 106.782 189.243 107.406 188.995Z" fill="white"/>
<path d="M153.994 139.766C154.152 139.465 154.272 139.183 154.476 138.994C154.854 138.647 155.296 138.711 155.598 139.097C155.822 139.384 155.733 140.112 155.446 140.341C154.91 140.769 154.13 140.493 153.994 139.766Z" fill="white"/>
<path d="M138.977 150.177C138.672 150.33 138.406 150.493 138.119 150.551C138.037 150.567 137.834 150.295 137.792 150.128C137.707 149.797 137.848 149.518 138.213 149.478C138.684 149.426 138.963 149.662 138.977 150.177Z" fill="white"/>
<path d="M136.182 149.471C135.978 149.271 135.773 149.087 135.717 148.865C135.689 148.755 135.909 148.515 136.065 148.448C136.191 148.395 136.427 148.468 136.55 148.565C136.839 148.794 136.694 149.191 136.182 149.471Z" fill="white"/>
<path d="M136.336 151.712C136.046 152.038 135.754 152.026 135.567 151.714C135.48 151.567 135.514 151.178 135.613 151.125C135.814 151.018 136.134 150.981 136.339 151.068C136.631 151.193 136.65 151.462 136.336 151.712Z" fill="white"/>
</g>
<defs>
<clipPath id="clip0">
<rect width="237" height="237" fill="white" transform="translate(30 25)"/>
</clipPath>
</defs>
</svg>
